<svg width="67" height="68" viewBox="0 0 67 68" fill="none" xmlns="http://www.w3.org/2000/svg">
<path d="M59.3405 50.5591C58.1931 49.6835 56.5714 49.928 55.7179 51.1048C55.2485 51.7522 54.7463 52.3871 54.225 52.9921C53.278 54.0911 53.3786 55.7699 54.4498 56.7415C54.9425 57.1883 55.5542 57.4077 56.1636 57.4077C56.8797 57.4077 57.5927 57.1045 58.1043 56.5107C58.7217 55.7943 59.3165 55.0423 59.8724 54.2756C60.7258 53.0988 60.4878 51.4346 59.3405 50.5591Z" fill="#006AFE"/>
<path d="M63.6702 38.1021C62.274 37.7901 60.8939 38.6992 60.5898 40.1325C60.4224 40.921 60.2202 41.711 59.9884 42.4808C59.5663 43.8825 60.3316 45.3697 61.6977 45.8028C61.9523 45.8834 62.2096 45.9218 62.4628 45.9218C63.5683 45.9218 64.592 45.1895 64.9356 44.0489C65.2108 43.1354 65.4508 42.1979 65.6494 41.2625C65.9535 39.8292 65.0674 38.4142 63.6702 38.1021Z" fill="#006AFE"/>
<path d="M46.879 59.0662C46.1916 59.4598 45.4799 59.8277 44.7638 60.1596C43.4606 60.7634 42.8813 62.3367 43.4698 63.6737C43.9022 64.656 44.8445 65.2373 45.8309 65.2373C46.1871 65.2373 46.5492 65.1615 46.8949 65.0013C47.7445 64.6077 48.5883 64.1714 49.4033 63.7045C50.6519 62.9895 51.0988 61.3713 50.4016 60.0904C49.7048 58.8097 48.1276 58.3511 46.879 59.0662Z" fill="#006AFE"/>
<path d="M30.5506 12.75V32.8998L21.0568 42.64C20.0458 43.6774 20.0458 45.3592 21.0568 46.3965C21.5625 46.9152 22.2249 47.1745 22.8877 47.1745C23.5502 47.1745 24.2128 46.9151 24.7185 46.3965L34.9704 35.8782C35.4558 35.3802 35.7286 34.7044 35.7286 34V12.75C35.7286 11.283 34.5695 10.0938 33.1396 10.0938C31.7097 10.0938 30.5506 11.283 30.5506 12.75Z" fill="#006AFE"/>
<path d="M63.6895 5.71094C62.2596 5.71094 61.1005 6.90014 61.1005 8.36719V15.7431C55.0743 6.04669 44.5504 0 33.1392 0C24.2874 0 15.9655 3.53666 9.70617 9.95828C3.44713 16.3802 0 24.9183 0 34C0 43.0817 3.44713 51.6198 9.70617 58.0417C15.9655 64.4633 24.2874 68 33.1392 68C33.1611 68 33.1822 67.9972 33.204 67.9967C33.2257 67.9972 33.2468 68 33.2687 68C34.2018 68 35.144 67.9596 36.0696 67.8802C37.4945 67.7578 38.5528 66.4734 38.4336 65.0116C38.3141 63.5497 37.064 62.4633 35.6375 62.5863C34.8551 62.6534 34.0582 62.6875 33.2687 62.6875C33.2468 62.6875 33.2257 62.6903 33.204 62.6908C33.1822 62.6903 33.1611 62.6875 33.1392 62.6875C17.7213 62.6875 5.17801 49.8184 5.17801 34C5.17801 18.1816 17.7213 5.3125 33.1392 5.3125C43.0756 5.3125 52.2146 10.7463 57.2087 19.3906H50.0898C48.6599 19.3906 47.5008 20.5798 47.5008 22.0469C47.5008 23.5139 48.6599 24.7031 50.0898 24.7031H57.9937C59.5704 24.7031 61.0455 24.2485 62.3014 23.4609C62.3822 23.4136 62.4598 23.3628 62.5339 23.3079C64.7871 21.7871 66.2785 19.1711 66.2785 16.2031V8.36719C66.2785 6.90014 65.1194 5.71094 63.6895 5.71094Z" fill="#006AFE"/>
</svg>
