<svg width="74" height="75" viewBox="0 0 74 75" fill="none" xmlns="http://www.w3.org/2000/svg">
<path d="M36.8333 0C24.6567 0 13.26 6.10056 6.39167 16.3267C2.21 22.515 0 29.7786 0 37.3056C0 44.8325 2.21 52.0961 6.39167 58.2845C13.26 68.5106 24.6567 74.6111 36.8333 74.6111C49.01 74.6111 60.4067 68.5106 67.275 58.2845C71.4567 52.0961 73.6667 44.8325 73.6667 37.3056C73.6667 29.7786 71.4567 22.515 67.275 16.3267C60.4067 6.10056 49.0317 0 36.8333 0ZM61.0567 15.3611H51.415C50.1583 11.6306 48.5767 8.47056 46.7567 5.99083C52.26 7.79028 57.2 11.0161 61.0567 15.3611ZM23.335 35.1111C23.4867 29.6689 24.245 24.4022 25.5017 19.75H48.1433C49.4 24.4022 50.1583 29.6689 50.31 35.1111H23.335ZM50.3317 39.5C50.18 44.9422 49.4217 50.2089 48.165 54.8611H25.5017C24.245 50.2089 23.4867 44.9422 23.335 39.5H50.3317ZM36.8333 4.38889C40.4517 4.38889 44.1133 8.44861 46.735 15.3611H26.9317C29.5533 8.44861 33.215 4.38889 36.8333 4.38889ZM26.91 5.99083C25.09 8.47056 23.5083 11.6306 22.2517 15.3611H12.61C16.4667 11.0161 21.4067 7.79028 26.91 5.99083ZM9.33833 19.75H20.9733C19.8033 24.4461 19.1317 29.7128 19.0017 35.1111H4.39833C4.76667 29.6469 6.45667 24.3803 9.33833 19.75ZM9.33833 54.8611C6.45667 50.2308 4.745 44.9642 4.39833 39.5H19.0017C19.1533 44.8983 19.825 50.165 20.9733 54.8611H9.33833ZM12.61 59.25H22.2517C23.5083 62.9806 25.09 66.1406 26.91 68.6203C21.4067 66.8208 16.4667 63.595 12.61 59.25ZM36.8333 70.2222C33.215 70.2222 29.5533 66.1625 26.9317 59.25H46.735C44.1133 66.1625 40.4517 70.2222 36.8333 70.2222ZM46.7567 68.6203C48.5767 66.1625 50.1583 62.9806 51.415 59.25H61.0567C57.2 63.595 52.26 66.8208 46.7567 68.6203ZM64.3283 54.8611H52.6933C53.8633 50.165 54.535 44.8983 54.665 39.5H69.2683C68.9 44.9642 67.21 50.2308 64.3283 54.8611ZM54.665 35.1111C54.5133 29.7128 53.8417 24.4461 52.6933 19.75H64.3283C67.21 24.3803 68.9217 29.6469 69.2683 35.1111H54.665Z" fill="#006AFE"/>
</svg>
