<svg width="78" height="79" viewBox="0 0 78 79" fill="none" xmlns="http://www.w3.org/2000/svg">
<path d="M34.0822 19.2502C26.7656 20.978 20.8758 26.8547 19.0773 34.2217C17.2731 41.6124 19.3379 49.1456 24.6011 54.3731C26.4627 56.2223 27.5744 59.1862 27.5744 62.3016V62.7989C27.5744 64.8504 28.4581 66.6964 29.8595 67.9686V72.0567C29.8595 75.8853 32.9349 79.0001 36.715 79.0001H41.2853C45.0654 79.0001 48.1408 75.8853 48.1408 72.0567V67.9686C49.5422 66.6964 50.426 64.8506 50.426 62.7989V62.2925C50.426 59.2245 51.597 56.2043 53.5586 54.2134C57.4328 50.2808 59.5666 45.0555 59.5666 39.5001C59.5666 26.2184 47.4143 16.1028 34.0822 19.2502ZM43.5705 72.0567C43.5705 73.3329 42.5454 74.3712 41.2853 74.3712H36.715C35.455 74.3712 34.4299 73.3329 34.4299 72.0567V69.7423H43.5705V72.0567ZM50.3233 50.9437C47.484 53.8255 45.8556 57.9619 45.8556 62.2925V62.7989C45.8556 64.0751 44.8305 65.1134 43.5705 65.1134H34.4299C33.1698 65.1134 32.1447 64.0751 32.1447 62.7989V62.3016C32.1447 57.9043 30.5614 53.8099 27.8009 51.0682C23.7044 46.9994 22.1019 41.1171 23.5138 35.3328C24.904 29.6382 29.4596 25.0948 35.12 23.7583C45.5817 21.2875 54.9963 29.1974 54.9963 39.5001C54.9963 43.821 53.3366 47.885 50.3233 50.9437Z" fill="#006AFE"/>
<path d="M21.2258 18.2246L14.7623 11.6784C13.87 10.7745 12.4231 10.7745 11.5307 11.6784C10.6382 12.5823 10.6382 14.0476 11.5307 14.9515L17.9941 21.4977C18.8864 22.4016 20.3335 22.4016 21.2258 21.4977C22.1182 20.5938 22.1182 19.1285 21.2258 18.2246Z" fill="#006AFE"/>
<path d="M11.5781 37.1855H2.28516C1.02314 37.1855 0 38.2218 0 39.5C0 40.7782 1.02314 41.8145 2.28516 41.8145H11.5781C12.8401 41.8145 13.8633 40.7782 13.8633 39.5C13.8633 38.2218 12.8401 37.1855 11.5781 37.1855Z" fill="#006AFE"/>
<path d="M75.7148 37.1855H66.4219C65.1599 37.1855 64.1367 38.2218 64.1367 39.5C64.1367 40.7782 65.1599 41.8145 66.4219 41.8145H75.7148C76.9769 41.8145 78 40.7782 78 39.5C78 38.2218 76.9769 37.1855 75.7148 37.1855Z" fill="#006AFE"/>
<path d="M66.4695 11.6784C65.5773 10.7745 64.1304 10.7745 63.2378 11.6784L56.7743 18.2246C55.8819 19.1283 55.8819 20.5938 56.7743 21.4977C57.6666 22.4016 59.1135 22.4016 60.006 21.4977L66.4695 14.9515C67.3619 14.0478 67.3619 12.5823 66.4695 11.6784Z" fill="#006AFE"/>
<path d="M39 0C37.738 0 36.7148 1.03626 36.7148 2.31445V11.7266C36.7148 13.0048 37.738 14.041 39 14.041C40.262 14.041 41.2852 13.0048 41.2852 11.7266V2.31445C41.2852 1.03626 40.262 0 39 0Z" fill="#006AFE"/>
<path d="M39.0001 27.9277C38.0608 27.9277 37.1039 28.0418 36.1577 28.2663C32.2173 29.1978 28.9186 32.4829 27.9496 36.4408C27.6458 37.6815 28.3924 38.9365 29.6173 39.2443C30.8424 39.552 32.0816 38.7955 32.3854 37.5551C32.9431 35.278 34.9214 33.3119 37.1984 32.7736C37.805 32.6296 38.4113 32.5566 39.0001 32.5566C40.2621 32.5566 41.2853 31.5204 41.2853 30.2422C41.2853 28.964 40.2621 27.9277 39.0001 27.9277Z" fill="#006AFE"/>
</svg>
