<svg width="74" height="75" viewBox="0 0 74 75" fill="none" xmlns="http://www.w3.org/2000/svg">
<path d="M37 0C24.7682 0 13.32 6.12816 6.42059 16.4005C2.22 22.6169 0 29.9134 0 37.4744C0 45.0354 2.22 52.3318 6.42059 58.5482C13.32 68.8205 24.7682 74.9487 37 74.9487C49.2317 74.9487 60.68 68.8205 67.5794 58.5482C71.78 52.3318 74 45.0354 74 37.4744C74 29.9134 71.78 22.6169 67.5794 16.4005C60.68 6.12816 49.2535 0 37 0ZM61.3329 15.4306H51.6476C50.3853 11.6832 48.7965 8.50888 46.9682 6.01794C52.4965 7.82553 57.4588 11.066 61.3329 15.4306ZM23.4406 35.27C23.5929 29.8031 24.3547 24.5126 25.6171 19.8394H48.3612C49.6235 24.5126 50.3853 29.8031 50.5376 35.27H23.4406ZM50.5594 39.6787C50.407 45.1456 49.6453 50.4361 48.3829 55.1093H25.6171C24.3547 50.4361 23.5929 45.1456 23.4406 39.6787H50.5594ZM37 4.40875C40.6347 4.40875 44.3129 8.48684 46.9465 15.4306H27.0535C29.687 8.48684 33.3653 4.40875 37 4.40875ZM27.0318 6.01794C25.2035 8.50888 23.6147 11.6832 22.3523 15.4306H12.6671C16.5412 11.066 21.5035 7.82553 27.0318 6.01794ZM9.38058 19.8394H21.0682C19.8929 24.5567 19.2182 29.8472 19.0876 35.27H4.41823C4.78823 29.7811 6.48588 24.4906 9.38058 19.8394ZM9.38058 55.1093C6.48588 50.4581 4.76647 45.1676 4.41823 39.6787H19.0876C19.24 45.1015 19.9147 50.392 21.0682 55.1093H9.38058ZM12.6671 59.5181H22.3523C23.6147 63.2655 25.2035 66.4398 27.0318 68.9308C21.5035 67.1232 16.5412 63.8827 12.6671 59.5181ZM37 70.54C33.3653 70.54 29.687 66.4619 27.0535 59.5181H46.9465C44.3129 66.4619 40.6347 70.54 37 70.54ZM46.9682 68.9308C48.7965 66.4619 50.3853 63.2655 51.6476 59.5181H61.3329C57.4588 63.8827 52.4965 67.1232 46.9682 68.9308ZM64.6194 55.1093H52.9317C54.107 50.392 54.7817 45.1015 54.9123 39.6787H69.5817C69.2117 45.1676 67.5141 50.4581 64.6194 55.1093ZM54.9123 35.27C54.76 29.8472 54.0853 24.5567 52.9317 19.8394H64.6194C67.5141 24.4906 69.2335 29.7811 69.5817 35.27H54.9123Z" fill="#006afe"/>
</svg>
