<svg width="323" height="61" viewBox="0 0 323 61" fill="none" xmlns="http://www.w3.org/2000/svg">
<path d="M87.8092 60.1133H81.6745V44.8369H81.5843C79.9604 47.2427 76.8931 48.7462 73.4349 48.7462C65.9471 48.7462 61.316 42.9124 61.316 35.8455C61.316 28.7787 66.2478 23.1853 73.2845 23.1853C77.8254 23.1853 80.5619 25.3505 81.7948 27.2751H81.9151V23.9071H87.8092V60.1434H87.7791L87.8092 60.1133ZM74.6378 43.6641C79.1786 43.6641 81.855 39.6947 81.855 35.9057C81.855 32.1166 79.1485 28.057 74.6378 28.057C69.8564 28.057 67.5709 32.0264 67.5709 35.8154C67.5709 39.6045 69.8864 43.6641 74.6378 43.6641Z" fill="black"/>
<path d="M116.528 48.024H110.694V44.1448H110.604C109.521 46.5505 106.604 48.7157 102.965 48.7157C96.5602 48.7157 93.8838 43.8741 93.8838 38.9424V23.8164H100.018V37.1982C100.018 40.0851 100.68 43.6336 104.649 43.6336C108.619 43.6336 110.393 40.2956 110.393 37.108V23.8164H116.558V47.9639L116.528 48.024Z" fill="black"/>
<path d="M122.783 23.877H128.948V48.0245H122.783V23.877Z" fill="black"/>
<path d="M151.892 30.583C150.929 29.1997 148.794 28.2374 146.81 28.2374C142.269 28.2374 140.043 32.2069 140.043 35.9959C140.043 39.7849 142.359 43.7544 147.02 43.7544C148.945 43.7544 151.02 43.0026 152.192 41.5892L156.012 45.4083C153.967 47.5735 150.569 48.7763 146.93 48.7763C139.653 48.7763 133.578 44.025 133.578 35.9959C133.578 27.9668 139.532 23.2455 146.749 23.2455C150.328 23.2455 154.087 24.6589 156.012 27.0045L151.801 30.6131H151.862L151.892 30.583Z" fill="black"/>
<path d="M159.199 10.0139H165.364V34.0713H165.514L174.867 23.907H182.775L172.1 34.8531L183.437 48.0846H175.288L165.544 35.7252H165.424V48.0846H159.259V10.0139H159.229H159.199Z" fill="black"/>
<path d="M192.429 10.0132V26.9435H192.609C193.872 25.3798 196.368 23.1846 200.849 23.1846C207.855 23.1846 212.817 28.7478 212.817 35.8447C212.817 42.9416 208.186 48.7455 200.698 48.7455C197.27 48.7455 193.932 47.1818 192.248 44.4452H192.158V48.0538H186.324V9.98312H192.429V10.0132ZM199.465 28.1163C194.925 28.1163 192.248 32.2061 192.248 35.965C192.248 39.724 194.955 43.7235 199.465 43.7235C204.247 43.7235 206.532 39.6638 206.532 35.8748C206.532 32.0858 204.217 28.1163 199.465 28.1163Z" fill="black"/>
<path d="M229.657 23.1853C237.115 23.1853 243.039 28.2675 243.039 35.8455C243.039 43.4236 237.085 48.7463 229.657 48.7463C222.23 48.7463 216.275 43.4536 216.275 35.8455C216.275 28.2374 222.23 23.1853 229.657 23.1853ZM229.657 43.7243C234.529 43.7243 236.814 39.6646 236.814 35.8756C236.814 32.0866 234.559 28.1171 229.657 28.1171C224.756 28.1171 222.53 32.0866 222.53 35.8756C222.53 39.6646 224.786 43.7243 229.657 43.7243Z" fill="black"/>
<path d="M259.759 23.1853C267.217 23.1853 273.141 28.2675 273.141 35.8455C273.141 43.4236 267.187 48.7463 259.759 48.7463C252.331 48.7463 246.377 43.4536 246.377 35.8455C246.377 28.2374 252.331 23.1853 259.759 23.1853ZM259.759 43.7243C264.631 43.7243 266.886 39.6646 266.886 35.8756C266.886 32.0866 264.631 28.1171 259.759 28.1171C254.887 28.1171 252.602 32.0866 252.602 35.8756C252.602 39.6646 254.857 43.7243 259.759 43.7243Z" fill="black"/>
<path d="M277.982 10.0139H284.147V34.0713H284.327L293.68 23.907H301.588L290.913 34.8531L302.25 48.0846H294.101L284.357 35.7252H284.177V48.0846H278.012V10.0139H277.982Z" fill="black"/>
<path d="M319 30.3432C317.918 28.9298 315.873 27.7269 313.618 27.7269C311.663 27.7269 309.648 28.4186 309.648 30.3432C309.648 32.2678 311.543 32.6888 314.971 33.5007C318.64 34.3427 322.91 35.9666 322.91 40.7179C322.91 46.6119 318.038 48.7771 312.655 48.7771C308.866 48.7771 304.897 47.3637 302.551 44.8076L306.611 41.0787C307.964 42.7628 310.25 44.116 312.926 44.116C314.7 44.116 316.895 43.3943 316.895 41.2592C316.895 39.2444 315.001 38.6429 311.242 37.8009C307.573 36.9589 303.965 35.4854 303.965 30.9747C303.965 25.5918 308.896 23.2763 313.768 23.2763C317.286 23.2763 320.985 24.4792 323 26.9451L319 30.4033V30.3432Z" fill="black"/>
<path d="M27.1848 54.3996C42.1905 54.3996 54.3695 42.2206 54.3695 27.2148C54.3695 12.2091 42.2206 0 27.1848 0C12.1489 0 0 12.179 0 27.1848C0 42.1905 12.179 54.3695 27.1848 54.3695V54.3996Z" fill="#2CA01C"/>
<path d="M7.60827 27.186C7.60827 32.9297 12.2994 37.5306 18.1333 37.5306H19.6369V33.6814H18.1333C14.5248 33.6814 11.5176 30.7344 11.5176 27.186C11.5176 23.6375 14.5248 20.6905 18.1333 20.6905H21.7419V40.7784C21.7419 42.8533 23.5462 44.6275 25.6513 44.6275V16.8413H18.1033C12.2393 16.8413 7.5782 21.4122 7.5782 27.186H7.60827ZM36.2365 16.8413H34.7329V20.6905H36.2365C39.8451 20.6905 42.8522 23.6375 42.8522 27.186C42.8522 30.7344 39.8451 33.6814 36.2365 33.6814H32.6279V13.5936C32.6279 11.5186 30.8236 9.74441 28.7186 9.74441V37.5306H36.2666C42.1305 37.5306 46.7916 32.9597 46.7916 27.186C46.7916 21.4122 42.1005 16.8413 36.2666 16.8413H36.2365Z" fill="black"/>
<path d="M96.1554 8.12712C96.1554 11.563 98.8817 14.0743 102.346 14.0743C105.81 14.0743 108.541 11.5679 108.541 8.12712V0.238217H105.183V7.7232C105.183 9.57742 103.953 10.8184 102.336 10.8184C100.715 10.8184 99.4896 9.57742 99.4896 7.7232V0.238217H96.1366L96.1554 8.12712Z" fill="black"/>
<path d="M117.606 3.41437H121.644V13.8357H125.024V3.41437H129.057V0.238217H117.606V3.41437Z" fill="black"/>
<path d="M115.459 0.238217H111.881V13.8357H115.459V0.238217Z" fill="black"/>
<path d="M82.5391 3.41437H86.5768V13.8357H89.9571V3.41437H93.9896V0.238217H82.5391V3.41437Z" fill="black"/>
<path d="M64.6477 0.238217H61.308V13.8357H64.6477V7.03939V0.238217Z" fill="black"/>
<path d="M80.621 5.94708C80.621 2.51122 77.889 0 74.4235 0C70.9578 0 68.2259 2.50635 68.2259 5.94708V13.836H71.5805V6.35106C71.5805 4.49684 72.8113 3.25583 74.4283 3.25583C76.0452 3.25583 77.2761 4.49684 77.2761 6.35106V13.836H80.6306L80.621 5.94708Z" fill="black"/>
</svg>
