<svg width="75" height="75" viewBox="0 0 75 75" fill="none" xmlns="http://www.w3.org/2000/svg">
<path d="M68.7495 43.1433C65.3035 43.1433 62.4996 40.3393 62.4996 36.8933C62.4996 36.203 61.9399 35.6433 61.2496 35.6433H13.7499C13.0596 35.6433 12.4999 36.203 12.4999 36.8933C12.4999 40.3393 9.69599 43.1433 6.24996 43.1433C5.55965 43.1433 4.99997 43.703 4.99997 44.3933V61.2498C4.99997 61.9401 5.55965 62.4998 6.24996 62.4998C9.69599 62.4998 12.4999 65.3038 12.4999 68.7498C12.4999 69.4401 13.0596 69.9998 13.7499 69.9998H37.4997C38.1901 69.9998 38.7497 69.4401 38.7497 68.7498C38.7497 68.0595 38.1901 67.4998 37.4997 67.4998H14.9108C14.3609 63.6735 11.3262 60.6389 7.49995 60.089V45.5541C11.3262 45.0042 14.3609 41.9696 14.9108 38.1433H60.0887C60.6386 41.9696 63.6733 45.0042 67.4995 45.5541V60.089C63.6733 60.6389 60.6386 63.6735 60.0887 67.4998H42.7475C42.0572 67.4998 41.4975 68.0595 41.4975 68.7498C41.4975 69.4401 42.0572 69.9998 42.7475 69.9998H61.2496C61.9399 69.9998 62.4996 69.4401 62.4996 68.7498C62.4996 65.3038 65.3035 62.4998 68.7495 62.4998C69.4398 62.4998 69.9995 61.9401 69.9995 61.2498V44.3933C69.9995 43.703 69.4398 43.1433 68.7495 43.1433Z" fill="#006afe"/>
<path d="M48.7497 52.8219C48.7497 46.619 43.7027 41.572 37.4998 41.572C31.2968 41.572 26.2498 46.619 26.2498 52.8219C26.2498 59.0249 31.2968 64.0718 37.4998 64.0718C43.7027 64.0718 48.7497 59.0249 48.7497 52.8219ZM37.4998 61.5719C32.675 61.5719 28.7498 57.6467 28.7498 52.8219C28.7498 47.9971 32.675 44.072 37.4998 44.072C42.3245 44.072 46.2497 47.9971 46.2497 52.8219C46.2497 57.6467 42.3245 61.5719 37.4998 61.5719Z" fill="#006afe"/>
<path d="M71.2495 30.6439H67.3615L54.3124 2.18885C53.8955 1.27821 53.1485 0.584251 52.2085 0.235741C51.2717 -0.112157 50.2524 -0.073707 49.3405 0.342553L31.2626 8.6323C30.6352 8.92038 30.3599 9.66256 30.6474 10.29C30.9349 10.9168 31.6777 11.1903 32.3051 10.9052L50.383 2.61549C50.6857 2.47511 51.0245 2.46229 51.3388 2.57948C51.6519 2.69544 51.9003 2.92676 52.0395 3.23072L64.6105 30.6439H62.4781L53.8614 11.8537C53.5733 11.2269 52.8323 10.9522 52.2037 11.2385C49.4937 12.4811 46.2766 11.2879 45.0327 8.57675C44.7458 7.94931 44.0043 7.67527 43.3756 7.96151L30.9943 13.6393L21.289 8.0726C20.4204 7.57394 19.4091 7.44517 18.4423 7.70517C17.4755 7.96761 16.6686 8.59017 16.17 9.4593L4.01916 30.6439C1.86128 30.5102 -0.00819791 32.2195 2.70377e-05 34.3938V71.2503C2.70377e-05 73.3181 1.68214 75.0002 3.75 75.0002H71.2495C73.3174 75.0002 74.9995 73.3181 74.9995 71.2503V34.3938C74.9995 32.326 73.3174 30.6439 71.2495 30.6439ZM43.3713 10.7142C45.2603 13.5456 48.7894 14.856 52.0688 13.9423L59.4009 29.9325L33.6596 15.168L43.3713 10.7142ZM18.3385 10.7032C18.5051 10.4133 18.7743 10.2058 19.0966 10.1185C19.4182 10.033 19.7552 10.0751 20.0451 10.2412L55.6156 30.6439H51.7206L26.5385 16.2C26.2511 16.0358 25.9099 15.9943 25.5895 16.0779C25.2696 16.1646 24.9974 16.3751 24.832 16.6626C23.3483 19.2493 20.0347 20.1465 17.4492 18.6633C16.8487 18.3191 16.0857 18.5266 15.7427 19.126L9.13631 30.6439H6.90175L18.3385 10.7032ZM46.695 30.6439H12.0189L17.3388 21.3684C20.5223 22.5757 24.1563 21.5906 26.2932 18.9417L46.695 30.6439ZM72.4995 71.2503C72.4995 71.9393 71.9386 72.5003 71.2495 72.5003H3.75C3.06092 72.5003 2.50001 71.9393 2.50001 71.2503V34.3938C2.50001 33.7047 3.06092 33.1438 3.75 33.1438H71.2495C71.9386 33.1438 72.4995 33.7047 72.4995 34.3938V71.2503Z" fill="#006afe"/>
</svg>
