<svg width="169" height="22" viewBox="0 0 169 22" fill="none" xmlns="http://www.w3.org/2000/svg">
<path fill-rule="evenodd" clip-rule="evenodd" d="M0 0.516705H5.65504L10.9369 14.9557H11.023L16.2475 0.516705H21.9312V20.8404H18.343V4.50681H18.2856L12.1138 20.8404H9.58774L3.50211 4.50681H3.44469V20.8404H0V0.516705ZM31.8315 0.516705H45.2945V3.67434H35.4484V8.84139H44.7778V11.8842H35.4484V17.6254H45.8112V20.8404H31.8315V0.516705ZM61.3378 9.27197C61.8545 9.27197 62.3712 9.23376 62.8879 9.15715C63.4046 9.08054 63.8688 8.93701 64.2802 8.72656C64.6917 8.51611 65.0314 8.2147 65.2992 7.82233C65.5673 7.42996 65.7011 6.92761 65.7011 6.31527C65.7011 5.76036 65.5768 5.30573 65.3279 4.95175C65.0793 4.59777 64.7635 4.31538 64.3806 4.10493C63.9979 3.89448 63.5625 3.75095 63.0745 3.67434C62.5865 3.59773 62.1129 3.55952 61.6536 3.55952H58.3811V9.27197H61.3378ZM54.7642 0.516705H61.8258C62.7828 0.516705 63.7109 0.617174 64.6103 0.818114C65.5099 1.01906 66.3088 1.34917 67.0072 1.80846C67.7058 2.26776 68.2656 2.87058 68.6865 3.61693C69.1076 4.36328 69.318 5.27236 69.318 6.34398C69.318 7.81749 68.9018 9.01846 68.0693 9.94656C67.2369 10.8747 66.1032 11.5015 64.6677 11.8268L70.0931 20.8404H65.7298L61.0221 12.2287H58.3811V20.8404H54.7642V0.516705ZM92.9111 5.28187C92.3752 4.55471 91.6768 4.02366 90.8156 3.68869C89.9545 3.35373 89.1123 3.18634 88.2895 3.18634C87.2369 3.18634 86.2801 3.37778 85.4189 3.76046C84.5578 4.14314 83.8161 4.66954 83.1942 5.33928C82.5722 6.00902 82.0937 6.79376 81.759 7.69315C81.424 8.59254 81.2566 9.56854 81.2566 10.6211C81.2566 11.7312 81.4191 12.7454 81.7446 13.664C82.0699 14.5825 82.534 15.372 83.1368 16.0322C83.7396 16.6924 84.462 17.2043 85.3041 17.5679C86.1461 17.9316 87.0934 18.1134 88.146 18.1134C89.2368 18.1134 90.2031 17.8981 91.0453 17.4675C91.8873 17.0369 92.5667 16.4676 93.0834 15.7595L95.9827 17.7976C95.0831 18.9266 93.9828 19.8022 92.6815 20.4242C91.38 21.0462 89.8586 21.3571 88.1173 21.3571C86.5288 21.3571 85.0696 21.0939 83.7396 20.5677C82.4095 20.0415 81.2661 19.3046 80.3093 18.3574C79.3523 17.4101 78.606 16.281 78.0703 14.9701C77.5344 13.6591 77.2665 12.2095 77.2665 10.6211C77.2665 8.99442 77.5487 7.52576 78.1133 6.2148C78.6777 4.90385 79.4528 3.78916 80.4385 2.87058C81.424 1.95199 82.5866 1.24386 83.9262 0.74635C85.2657 0.248842 86.7202 0 88.2895 0C88.9401 0 89.6195 0.0622546 90.3276 0.186588C91.0356 0.310919 91.715 0.502351 92.3657 0.760703C93.0163 1.01906 93.6288 1.33966 94.2029 1.72235C94.777 2.10503 95.265 2.56432 95.6669 3.10023L92.9111 5.28187ZM119.834 13.3769C119.834 14.6017 119.624 15.7069 119.203 16.6924C118.781 17.6779 118.207 18.5152 117.48 19.2042C116.754 19.8931 115.892 20.4242 114.897 20.7973C113.901 21.1705 112.821 21.3571 111.653 21.3571C110.485 21.3571 109.405 21.1705 108.409 20.7973C107.413 20.4242 106.549 19.8931 105.811 19.2042C105.074 18.5152 104.5 17.6779 104.089 16.6924C103.678 15.7069 103.472 14.6017 103.472 13.3769V0.516705H107.089V13.2334C107.089 13.8267 107.166 14.4152 107.318 14.9988C107.471 15.5824 107.726 16.104 108.079 16.5632C108.433 17.0225 108.903 17.3957 109.486 17.6828C110.069 17.9698 110.792 18.1134 111.653 18.1134C112.514 18.1134 113.237 17.9698 113.82 17.6828C114.403 17.3957 114.873 17.0225 115.227 16.5632C115.58 16.104 115.835 15.5824 115.988 14.9988C116.14 14.4152 116.217 13.8267 116.217 13.2334V0.516705H119.834V13.3769ZM136.135 9.27197C136.652 9.27197 137.169 9.23376 137.686 9.15715C138.202 9.08054 138.667 8.93701 139.078 8.72656C139.489 8.51611 139.83 8.2147 140.097 7.82233C140.364 7.42996 140.499 6.92761 140.499 6.31527C140.499 5.76036 140.375 5.30573 140.126 4.95175C139.876 4.59777 139.56 4.31538 139.178 4.10493C138.796 3.89448 138.36 3.75095 137.872 3.67434C137.384 3.59773 136.91 3.55952 136.451 3.55952H133.179V9.27197H136.135ZM129.562 0.516705H136.623C137.58 0.516705 138.509 0.617174 139.408 0.818114C140.307 1.01906 141.107 1.34917 141.805 1.80846C142.503 2.26776 143.063 2.87058 143.484 3.61693C143.906 4.36328 144.116 5.27236 144.116 6.34398C144.116 7.81749 143.699 9.01846 142.867 9.94656C142.034 10.8747 140.901 11.5015 139.465 11.8268L144.891 20.8404H140.527L135.82 12.2287H133.179V20.8404H129.562V0.516705ZM157.747 12.0277L150.112 0.516705H154.532L159.642 9.07103L164.809 0.516705H169L161.364 12.0277V20.8404H157.747V12.0277Z" fill="black"/>
</svg>
