<svg width="201" height="56" viewBox="0 0 201 56" fill="none" xmlns="http://www.w3.org/2000/svg">
<path d="M27.7241 55.4483C43.0357 55.4483 55.4483 43.0357 55.4483 27.7241C55.4483 12.4126 43.0357 0 27.7241 0C12.4126 0 0 12.4126 0 27.7241C0 43.0357 12.4126 55.4483 27.7241 55.4483Z" fill="#D52B1E"/>
<path d="M21.4011 37.8646C18.2163 35.5861 15.1546 33.1549 12.2224 30.5771C11.1443 32.9228 10.1773 35.3235 9.32095 37.7791C13.9966 41.713 20.2492 46.221 24.5367 48.7561C30.0994 34.4744 38.7791 25.1588 47.0831 18.6594C46.0174 16.4237 44.5698 14.3957 42.8264 12.6669C33.9742 19.3985 26.6311 27.9993 21.4011 37.8646Z" fill="white"/>
<path d="M63.3352 39.7945V36.3267H66.3277V31.3088H70.5306V36.3267H74.8073V39.7945H70.5306V47.8443C70.5306 49.3945 70.887 50.5152 72.7734 50.5152C73.3448 50.5152 74.0945 50.4093 74.5923 50.154L74.7336 53.547C73.9838 53.8334 72.8471 54.0139 71.8825 54.0139C67.3538 54.0139 66.3215 51.2 66.3215 47.8754V39.7945H63.3352Z" fill="black"/>
<path d="M93.6885 53.5142H89.56V50.7548H89.4851C88.7232 52.471 86.6623 54.0142 84.0892 54.0142C79.5614 54.0142 77.6754 50.5758 77.6754 47.0694V36.3282H82.0221V45.8534C82.0221 47.8967 82.4905 50.4339 85.2821 50.4339C88.0363 50.4339 89.3415 48.0695 89.3415 45.7793V36.3282H93.6885V53.5142Z" fill="black"/>
<path d="M97.9905 36.1107H102.122V38.9751H102.196C103.132 37.0058 104.965 35.6107 107.227 35.6107C107.548 35.6107 107.982 35.6477 108.268 35.7157V39.6541C107.691 39.5122 107.332 39.475 106.935 39.475C103.057 39.475 102.302 42.8395 102.302 44.0926V53.2968H97.9905V36.1107Z" fill="black"/>
<path d="M115.174 26.7678V38.6922H115.278C116.168 37.5943 117.873 36.0389 121.009 36.0389C125.888 36.0389 129.3 39.9304 129.3 44.9563C129.3 49.909 126.097 54.0139 120.899 54.0139C118.512 54.0139 116.198 52.9161 115.027 50.9703H114.953V53.5199H110.897V26.7739H115.174V26.7678ZM120.046 39.5034C116.916 39.5034 115.027 42.3701 115.027 45.0234C115.027 47.6766 116.911 50.4702 120.046 50.4702C123.354 50.4702 124.955 47.6034 124.955 44.9502C124.961 42.2969 123.359 39.5034 120.046 39.5034Z" fill="black"/>
<path d="M140.532 36.089C145.71 36.089 149.854 39.6534 149.854 44.9816C149.854 50.3099 145.71 54.0141 140.532 54.0141C135.355 54.0141 131.212 50.3099 131.212 44.9816C131.212 39.6534 135.355 36.089 140.532 36.089ZM140.532 50.4801C143.925 50.4801 145.495 47.6214 145.495 44.9755C145.495 42.3296 143.925 39.5439 140.532 39.5439C137.14 39.5439 135.571 42.3296 135.571 44.9755C135.571 47.6214 137.14 50.4801 140.532 50.4801Z" fill="black"/>
<path d="M150.571 39.7945V36.3267H153.688V31.3088H158.066V36.3267H162.521V39.7945H158.066V47.8443C158.066 49.3945 158.437 50.5152 160.403 50.5152C160.998 50.5152 161.779 50.4093 162.297 50.154L162.444 53.547C161.663 53.8334 160.48 54.0139 159.474 54.0139C154.757 54.0139 153.682 51.2 153.682 47.8754V39.7945H150.571Z" fill="black"/>
<path d="M176.408 51.4298H176.303C175.438 52.9205 173.379 54.0141 170.928 54.0141C168.147 54.0141 164.433 52.7006 164.433 48.7355C164.433 43.6708 170.928 42.9621 176.34 42.9621V42.5344C176.34 40.445 174.536 39.4186 172.371 39.4186C170.529 39.4186 168.763 40.2679 167.643 41.3676L165.403 38.7833C167.351 37.0116 170.094 36.089 172.726 36.089C178.934 36.089 180.446 39.8463 180.446 43.2492V53.5987H176.403V51.4298H176.408ZM176.333 45.8335H175.357C172.614 45.8335 168.756 46.1512 168.756 48.6684C168.756 50.2996 170.305 50.7944 171.786 50.7944C174.747 50.7944 176.333 49.1266 176.333 46.4384V45.8335Z" fill="black"/>
<path d="M188.649 44.3944L182.439 36.3282H187.609L191.342 41.6686L195.187 36.3282H200.139L193.961 44.3944L201 53.5362H195.756L191.268 47.2625L186.743 53.5362H181.641L188.649 44.3944Z" fill="black"/>
<path d="M110.204 12.8157C110.204 17.1484 113.723 20.315 118.196 20.315C122.667 20.315 126.193 17.1545 126.193 12.8157V2.86791H121.858V12.3064C121.858 14.6445 120.27 16.2094 118.182 16.2094C116.09 16.2094 114.508 14.6445 114.508 12.3064V2.86791H110.18L110.204 12.8157Z" fill="black"/>
<path d="M137.665 6.88744H142.721V20.076H146.955V6.88744H152.005V2.86791H137.665V6.88744Z" fill="black"/>
<path d="M134.797 2.86791H130.495V20.076H134.797V2.86791Z" fill="black"/>
<path d="M92.9714 6.88744H98.028V20.076H102.261V6.88744H107.312V2.86791H92.9714V6.88744Z" fill="black"/>
<path d="M70.7444 2.86791H66.2034V20.076H70.7444V11.475V2.86791Z" fill="black"/>
<path d="M90.808 9.99153C90.808 5.5996 87.2813 2.3896 82.8077 2.3896C78.3339 2.3896 74.8074 5.59337 74.8074 9.99153V20.0757H79.1377V10.5079C79.1377 8.13774 80.7266 6.5514 82.8139 6.5514C84.9012 6.5514 86.4901 8.13774 86.4901 10.5079V20.0757H90.8204L90.808 9.99153Z" fill="black"/>
</svg>
