<svg width="68" height="75" viewBox="0 0 68 75" fill="none" xmlns="http://www.w3.org/2000/svg">
<path d="M65.6609 11.2151C54.7473 11.2151 40.3879 7.53241 35.2695 0.709455C34.5886 -0.119668 33.3646 -0.239258 32.5355 0.441664C32.4377 0.521773 32.3478 0.611609 32.2677 0.709455C27.1488 7.53184 12.7893 11.2151 1.87626 11.2151C0.839995 11.2151 0 12.0551 0 13.0914V37.4793C0 58.1084 17.914 70.5446 33.2536 74.9266C33.5901 75.0244 33.9471 75.0244 34.2836 74.9266C49.6232 70.5446 67.5372 58.1084 67.5372 37.4793V13.0914C67.5372 12.0551 66.6972 11.2151 65.6609 11.2151ZM63.7847 37.4793C63.7847 55.7926 47.7361 67.0193 33.7686 71.1712C19.8011 67.0193 3.75194 55.7926 3.75194 37.4793V14.9344C14.5958 14.5677 27.4189 11.0721 33.7686 4.6857C40.1189 11.0721 52.9414 14.5677 63.7853 14.9339V37.4793H63.7847Z" fill="#006afe"/>
<path d="M26.2648 29.9752V33.7271H24.3885C23.3523 33.7271 22.5123 34.5671 22.5123 35.6034V50.6111C22.5123 51.6474 23.3523 52.4874 24.3885 52.4874H43.1488C44.185 52.4874 45.025 51.6474 45.025 50.6111V35.6034C45.025 34.5671 44.185 33.7271 43.1488 33.7271H41.2725V29.9752C41.2725 25.8307 37.9131 22.4713 33.7687 22.4713C29.6242 22.4713 26.2648 25.8307 26.2648 29.9752ZM41.2725 48.7355H26.2648V37.4791H41.2725V48.7355ZM37.5206 29.9752V33.7271H30.0167V29.9752C30.0167 27.9032 31.6961 26.2232 33.7687 26.2232C35.8406 26.2232 37.5206 27.9032 37.5206 29.9752Z" fill="#006afe"/>
</svg>
