<svg width="58" height="58" viewBox="0 0 58 58" fill="none" xmlns="http://www.w3.org/2000/svg">
<path d="M43.4045 28.8726C43.4045 26.7056 44.8704 25.2396 47.1011 25.2396C49.1407 25.2396 50.5428 26.7056 50.5428 28.8726C50.5428 30.9758 49.1407 32.378 47.1011 32.378C44.8704 32.378 43.4045 30.9758 43.4045 28.8726ZM37.9231 17.5275C39.1978 15.6791 40.0263 13.4484 40.0263 10.3253C43.1495 12.1737 45.7625 14.7868 47.6109 17.9099C44.5516 17.9099 42.3208 18.7384 40.4726 20.0769C39.7713 19.1208 38.8792 18.2287 37.9231 17.5275ZM37.7955 40.345C38.7516 39.6441 39.5803 38.7516 40.345 37.8593C42.1934 39.2617 44.488 40.0901 47.6109 40.0901C45.7625 43.2769 43.1495 45.8901 40.0263 47.6747C40.0263 44.488 39.1978 42.1934 37.7955 40.345ZM35.8835 2.48572C47.8022 5.48133 56.3428 16.0616 56.3428 29C56.3428 34.4176 52.2638 38.433 46.9737 38.433C44.8066 38.433 42.767 37.7319 41.2375 36.5846C42.0659 35.2462 42.6396 33.7803 43.022 32.1867C44.0418 33.334 45.5077 34.0351 47.1011 34.0351C49.8418 34.0351 52.2 31.6769 52.2 28.8726C52.2 20.0133 47.1011 12.2374 39.6441 8.34944C39.0704 6.05495 37.6681 3.95165 35.8835 2.48572ZM32.888 36.5846C35.6287 35.1824 37.5407 32.3143 37.5407 29C37.5407 22.7538 43.0857 18.6747 48.567 19.6944C49.2681 21.2242 49.778 22.945 50.1604 24.6659C49.2681 23.9649 48.2484 23.5824 47.1011 23.5824C44.1692 23.5824 41.7471 26.0045 41.7471 28.8726C41.7471 33.2066 39.7713 36.9032 36.7758 39.1978C35.6923 38.0505 34.3538 37.1582 32.888 36.5846ZM25.4308 11.0901C25.4308 8.92308 26.8968 7.45713 29.1274 7.45713C31.167 7.45713 32.5692 8.92308 32.5692 11.0901C32.5692 13.1934 31.167 14.5956 29.1274 14.5956C26.8968 14.5956 25.4308 13.1934 25.4308 11.0901ZM25.4308 47.0375C25.4308 44.8704 26.8968 43.4045 29.1274 43.4045C31.167 43.4045 32.5692 44.8704 32.5692 47.0375C32.5692 49.1407 31.167 50.5428 29.1274 50.5428C26.8968 50.5428 25.4308 49.1407 25.4308 47.0375ZM22.1165 29C22.1165 25.0484 25.0484 22.1165 29.0638 22.1165C33.0154 22.1165 35.8835 25.0484 35.8835 29C35.8835 33.0154 33.0154 35.8835 29.0638 35.8835C25.0484 35.8835 22.1165 33.0154 22.1165 29ZM29.0638 20.4593C22.945 20.4593 18.8659 15.3604 19.7582 9.4967C21.3516 8.73186 23.1362 8.15824 24.9208 7.83955C24.2197 8.73186 23.7737 9.87914 23.7737 11.0901C23.7737 13.8945 26.1955 16.2528 29.1274 16.2528C33.3978 16.2528 37.0944 18.0374 39.3253 21.033C38.1143 22.1803 37.222 23.5824 36.5846 25.112C35.1824 22.3713 32.3143 20.4593 29.0638 20.4593ZM19.6308 46.9099C19.6308 44.7428 20.3319 42.767 21.4792 41.2375C22.7538 42.0021 24.1561 42.6396 25.6857 43.022C24.5383 43.978 23.7737 45.4441 23.7737 47.0375C23.7737 49.8418 26.1955 52.2 29.1274 52.2C38.0505 52.2 45.6989 47.1649 49.5231 39.7713C51.8814 39.1978 53.9846 37.8593 55.4505 36.0109C52.455 47.8659 41.9384 56.3428 29 56.3428C23.7099 56.3428 19.6308 52.2638 19.6308 46.9099ZM18.8659 36.8396C19.9495 35.6923 20.8418 34.3538 21.4154 32.888C22.8176 35.6287 25.7495 37.5407 29.0638 37.5407C35.1824 37.5407 39.1978 42.9582 38.2418 48.6308C36.6484 49.3319 34.9274 49.9056 33.1428 50.2242C33.7803 49.3319 34.2263 48.2484 34.2263 47.0375C34.2263 44.1692 31.8681 41.7471 29.1274 41.7471C24.8572 41.7471 21.1604 39.8351 18.8659 36.8396ZM10.4528 40.0901C13.5121 40.0901 15.8066 39.2617 17.655 37.8593C18.4197 38.7516 19.2484 39.6441 20.2045 40.345C18.8021 42.1934 17.9737 44.488 17.9737 47.6109C14.8505 45.7625 12.3011 43.2133 10.4528 40.0901ZM10.3891 17.9099C12.2374 14.8505 14.8505 12.2374 17.9737 10.3891C17.9737 13.5758 18.8021 15.8704 20.2681 17.7187C19.312 18.4197 18.4197 19.2484 17.7187 20.2045C15.8704 18.7384 13.5758 17.9099 10.3891 17.9099ZM7.77582 32.888C8.73186 33.5891 9.87912 34.0351 11.1538 34.0351C13.8945 34.0351 16.2528 31.6769 16.2528 28.8726C16.2528 24.7296 18.2287 21.1604 21.2242 18.8659C22.3713 19.9495 23.7099 20.8418 25.1758 21.4154C22.3713 22.8176 20.4593 25.7495 20.4593 29C20.4593 35.2462 15.1692 39.1978 9.4967 38.3056C8.73186 36.5846 8.15824 34.8 7.77582 32.888ZM7.45713 28.8726C7.45713 26.7056 8.92308 25.2396 11.1538 25.2396C13.1934 25.2396 14.5956 26.7056 14.5956 28.8726C14.5956 30.9758 13.1934 32.378 11.1538 32.378C8.92308 32.378 7.45713 30.9758 7.45713 28.8726ZM2.48572 22.0529C5.54505 10.1341 16.0616 1.65714 28.9362 1.65714C34.2901 1.65714 38.3692 5.73625 38.3692 11.0263C38.3692 13.1934 37.7319 15.1055 36.6484 16.6351C35.3737 15.8704 33.9713 15.2967 32.4418 14.978C33.5253 14.022 34.2263 12.6197 34.2263 11.0901C34.2263 8.22199 31.8681 5.8 29.1274 5.8C20.1407 5.8 12.3649 10.8989 8.47692 18.2287C6.11867 18.8022 4.01538 20.2045 2.48572 22.0529ZM1.65714 29C1.65714 23.6462 5.73625 19.567 11.0901 19.567C13.2571 19.567 15.233 20.2681 16.7626 21.4792C15.9978 22.6901 15.4242 24.0287 15.0417 25.4944C14.0857 24.3471 12.6835 23.5824 11.1538 23.5824C8.22199 23.5824 5.8 26.0045 5.8 28.8726C5.8 37.9231 10.8351 45.6351 18.2923 49.5867C18.8659 51.945 20.2681 53.9846 22.1165 55.5143C10.1978 52.5824 1.65714 42.0021 1.65714 29ZM28.9362 58C44.4242 58 58 45.6351 58 29C58 12.9384 45.0616 0 28.9362 0C12.9384 0 0 12.9384 0 29C0 45.0616 12.9384 58 28.9362 58Z" fill="black"/>
<path d="M43.4045 28.8726C43.4045 26.7056 44.8704 25.2396 47.1011 25.2396C49.1407 25.2396 50.5428 26.7056 50.5428 28.8726C50.5428 30.9758 49.1407 32.378 47.1011 32.378C44.8704 32.378 43.4045 30.9758 43.4045 28.8726ZM37.9231 17.5275C39.1978 15.6791 40.0263 13.4484 40.0263 10.3253C43.1495 12.1737 45.7625 14.7868 47.6109 17.9099C44.5516 17.9099 42.3208 18.7384 40.4726 20.0769C39.7713 19.1208 38.8792 18.2287 37.9231 17.5275ZM37.7955 40.345C38.7516 39.6441 39.5803 38.7516 40.345 37.8593C42.1934 39.2617 44.488 40.0901 47.6109 40.0901C45.7625 43.2769 43.1495 45.8901 40.0263 47.6747C40.0263 44.488 39.1978 42.1934 37.7955 40.345ZM35.8835 2.48572C47.8022 5.48133 56.3428 16.0616 56.3428 29C56.3428 34.4176 52.2638 38.433 46.9737 38.433C44.8066 38.433 42.767 37.7319 41.2375 36.5846C42.0659 35.2462 42.6396 33.7803 43.022 32.1867C44.0418 33.334 45.5077 34.0351 47.1011 34.0351C49.8418 34.0351 52.2 31.6769 52.2 28.8726C52.2 20.0133 47.1011 12.2374 39.6441 8.34944C39.0704 6.05495 37.6681 3.95165 35.8835 2.48572ZM32.888 36.5846C35.6287 35.1824 37.5407 32.3143 37.5407 29C37.5407 22.7538 43.0857 18.6747 48.567 19.6944C49.2681 21.2242 49.778 22.945 50.1604 24.6659C49.2681 23.9649 48.2484 23.5824 47.1011 23.5824C44.1692 23.5824 41.7471 26.0045 41.7471 28.8726C41.7471 33.2066 39.7713 36.9032 36.7758 39.1978C35.6923 38.0505 34.3538 37.1582 32.888 36.5846ZM25.4308 11.0901C25.4308 8.92308 26.8968 7.45713 29.1274 7.45713C31.167 7.45713 32.5692 8.92308 32.5692 11.0901C32.5692 13.1934 31.167 14.5956 29.1274 14.5956C26.8968 14.5956 25.4308 13.1934 25.4308 11.0901ZM25.4308 47.0375C25.4308 44.8704 26.8968 43.4045 29.1274 43.4045C31.167 43.4045 32.5692 44.8704 32.5692 47.0375C32.5692 49.1407 31.167 50.5428 29.1274 50.5428C26.8968 50.5428 25.4308 49.1407 25.4308 47.0375ZM22.1165 29C22.1165 25.0484 25.0484 22.1165 29.0638 22.1165C33.0154 22.1165 35.8835 25.0484 35.8835 29C35.8835 33.0154 33.0154 35.8835 29.0638 35.8835C25.0484 35.8835 22.1165 33.0154 22.1165 29ZM29.0638 20.4593C22.945 20.4593 18.8659 15.3604 19.7582 9.4967C21.3516 8.73186 23.1362 8.15824 24.9208 7.83955C24.2197 8.73186 23.7737 9.87914 23.7737 11.0901C23.7737 13.8945 26.1955 16.2528 29.1274 16.2528C33.3978 16.2528 37.0944 18.0374 39.3253 21.033C38.1143 22.1803 37.222 23.5824 36.5846 25.112C35.1824 22.3713 32.3143 20.4593 29.0638 20.4593ZM19.6308 46.9099C19.6308 44.7428 20.3319 42.767 21.4792 41.2375C22.7538 42.0021 24.1561 42.6396 25.6857 43.022C24.5383 43.978 23.7737 45.4441 23.7737 47.0375C23.7737 49.8418 26.1955 52.2 29.1274 52.2C38.0505 52.2 45.6989 47.1649 49.5231 39.7713C51.8814 39.1978 53.9846 37.8593 55.4505 36.0109C52.455 47.8659 41.9384 56.3428 29 56.3428C23.7099 56.3428 19.6308 52.2638 19.6308 46.9099ZM18.8659 36.8396C19.9495 35.6923 20.8418 34.3538 21.4154 32.888C22.8176 35.6287 25.7495 37.5407 29.0638 37.5407C35.1824 37.5407 39.1978 42.9582 38.2418 48.6308C36.6484 49.3319 34.9274 49.9056 33.1428 50.2242C33.7803 49.3319 34.2263 48.2484 34.2263 47.0375C34.2263 44.1692 31.8681 41.7471 29.1274 41.7471C24.8572 41.7471 21.1604 39.8351 18.8659 36.8396ZM10.4528 40.0901C13.5121 40.0901 15.8066 39.2617 17.655 37.8593C18.4197 38.7516 19.2484 39.6441 20.2045 40.345C18.8021 42.1934 17.9737 44.488 17.9737 47.6109C14.8505 45.7625 12.3011 43.2133 10.4528 40.0901ZM10.3891 17.9099C12.2374 14.8505 14.8505 12.2374 17.9737 10.3891C17.9737 13.5758 18.8021 15.8704 20.2681 17.7187C19.312 18.4197 18.4197 19.2484 17.7187 20.2045C15.8704 18.7384 13.5758 17.9099 10.3891 17.9099ZM7.77582 32.888C8.73186 33.5891 9.87912 34.0351 11.1538 34.0351C13.8945 34.0351 16.2528 31.6769 16.2528 28.8726C16.2528 24.7296 18.2287 21.1604 21.2242 18.8659C22.3713 19.9495 23.7099 20.8418 25.1758 21.4154C22.3713 22.8176 20.4593 25.7495 20.4593 29C20.4593 35.2462 15.1692 39.1978 9.4967 38.3056C8.73186 36.5846 8.15824 34.8 7.77582 32.888ZM7.45713 28.8726C7.45713 26.7056 8.92308 25.2396 11.1538 25.2396C13.1934 25.2396 14.5956 26.7056 14.5956 28.8726C14.5956 30.9758 13.1934 32.378 11.1538 32.378C8.92308 32.378 7.45713 30.9758 7.45713 28.8726ZM2.48572 22.0529C5.54505 10.1341 16.0616 1.65714 28.9362 1.65714C34.2901 1.65714 38.3692 5.73625 38.3692 11.0263C38.3692 13.1934 37.7319 15.1055 36.6484 16.6351C35.3737 15.8704 33.9713 15.2967 32.4418 14.978C33.5253 14.022 34.2263 12.6197 34.2263 11.0901C34.2263 8.22199 31.8681 5.8 29.1274 5.8C20.1407 5.8 12.3649 10.8989 8.47692 18.2287C6.11867 18.8022 4.01538 20.2045 2.48572 22.0529ZM1.65714 29C1.65714 23.6462 5.73625 19.567 11.0901 19.567C13.2571 19.567 15.233 20.2681 16.7626 21.4792C15.9978 22.6901 15.4242 24.0287 15.0417 25.4944C14.0857 24.3471 12.6835 23.5824 11.1538 23.5824C8.22199 23.5824 5.8 26.0045 5.8 28.8726C5.8 37.9231 10.8351 45.6351 18.2923 49.5867C18.8659 51.945 20.2681 53.9846 22.1165 55.5143C10.1978 52.5824 1.65714 42.0021 1.65714 29ZM28.9362 58C44.4242 58 58 45.6351 58 29C58 12.9384 45.0616 0 28.9362 0C12.9384 0 0 12.9384 0 29C0 45.0616 12.9384 58 28.9362 58Z" fill="black"/>
</svg>
