<svg width="92" height="57" viewBox="0 0 92 57" fill="none" xmlns="http://www.w3.org/2000/svg">
<path fill-rule="evenodd" clip-rule="evenodd" d="M18.8484 34.1696C18.8593 34.4761 18.9794 34.6925 19.313 34.671C19.7057 34.6434 20.2501 33.9167 20.47 33.6565C20.902 33.1466 21.3041 32.6106 21.7243 32.0915C24.608 28.5303 27.4399 24.9437 29.796 21.0092C31.0987 18.8326 32.5238 16.2465 33.5494 13.9374C34.5522 11.6822 35.5876 9.62093 35.6334 6.96141C35.6434 6.42032 35.4641 5.88434 34.9351 5.88434C34.6941 5.88434 34.4072 6.00009 34.097 6.23979C33.2779 6.87267 32.5558 7.7029 31.9096 8.50205C30.4779 10.2681 29.2416 12.2269 27.9597 14.0995C25.3068 17.9749 23.3321 22.1531 21.6231 26.4945C20.8428 28.4789 19.9266 30.33 19.3362 32.3664C19.0482 33.3058 18.8298 33.6463 18.8484 34.1696ZM55.6644 34.1696C55.6758 34.4761 55.7956 34.6925 56.129 34.671C56.5213 34.6434 57.0657 33.9167 57.2862 33.6565C57.718 33.1466 58.1202 32.6106 58.5403 32.0915C61.4234 28.5303 64.2559 24.9437 66.612 21.0092C67.9147 18.8326 69.3398 16.2465 70.3654 13.9374C71.3682 11.6822 72.4036 9.62093 72.45 6.96141C72.4593 6.42032 72.2803 5.88434 71.7511 5.88434C71.5101 5.88434 71.2232 6.00009 70.9125 6.23979C70.0938 6.87267 69.3718 7.7029 68.7256 8.50205C67.2939 10.2681 66.0573 12.2269 64.7757 14.0995C62.1228 17.9749 60.1481 22.1531 58.4391 26.4945C57.6588 28.4789 56.7426 30.33 56.1522 32.3664C55.8642 33.3058 55.6458 33.6463 55.6644 34.1696ZM91.9998 37.4414C92.0132 38.4466 91.4391 39.3901 90.969 40.2432C90.4488 41.1924 89.9625 42.1587 89.4273 43.0997C88.3192 45.0517 87.0077 46.9938 85.6126 48.7578C82.9648 52.1052 79.5722 54.8856 75.5217 54.8856C73.0537 54.8856 71.4004 53.7577 70.6499 52.7061C70.0777 51.9033 69.7214 50.9813 69.5196 50.0225C66.3485 53.8111 62.3331 57 57.7633 57C55.2796 57 53.8292 56.5028 52.0392 54.7683C50.3335 53.1161 49.4437 50.7839 49.0597 48.4191C48.9719 48.5324 48.8853 48.6466 48.797 48.7578C46.1492 52.1052 42.7566 54.8856 38.706 54.8856C36.2375 54.8856 34.5848 53.7577 33.8343 52.7061C33.2618 51.9033 32.9058 50.9813 32.704 50.0225C29.5329 53.8111 25.5178 57 20.9471 57C18.4638 57 17.0136 56.5028 15.2237 54.7683C12.7653 52.3872 11.9989 48.5957 12.0066 45.3277C11.8038 45.4077 11.5823 45.5052 11.3387 45.6235C8.56711 47.2676 5.5782 48.5369 2.31005 49.2402C-0.0135781 49.74 -0.996808 46.2177 1.32733 45.7179C5.1849 44.8876 9.34234 42.7355 12.4515 40.5615C12.6884 39.1571 12.9991 37.7597 13.3274 36.3694C14.0928 33.1235 15.0409 29.9642 16.2213 26.8503C17.4203 23.8267 18.4944 20.7432 20.0479 17.8665C20.8165 16.4437 21.5298 15.0514 22.2791 13.6174C23.0787 12.0849 24.3995 10.1909 25.3419 8.74659C27.4193 5.56383 31.3749 0 35.7574 0C36.9398 0 38.1367 0.445206 39.3099 1.51411C40.397 2.50552 40.8165 4.0237 40.8114 5.49806C40.8 8.54975 39.5072 11.9314 38.2834 14.8913C37.053 17.8702 35.3326 20.8263 33.7224 23.6256C30.542 29.1517 26.3587 34.0061 22.0675 38.6633C20.996 39.8046 19.9095 40.9235 18.7498 41.9772C17.5684 43.0506 16.8753 44.0854 16.8448 45.8128C16.8448 48.62 17.3898 52.2394 20.7695 52.2394C23.7548 52.2394 26.6513 49.354 28.4852 47.3094C30.6621 44.8814 32.1415 42.5983 33.8034 39.8066C34.0656 39.3656 34.2854 38.9514 34.4976 38.5395C34.7246 37.9315 34.9585 37.3308 35.1948 36.7398C35.9041 34.9661 36.7225 33.2509 37.5323 31.5221C38.2797 29.9253 38.8599 27.9742 40.2209 26.7605C40.7742 26.2678 41.5479 25.9781 42.2931 25.9781C43.614 25.9781 44.5812 26.8935 44.5812 28.2584C44.5812 29.5984 43.6485 31.0453 43.0839 32.1219C42.2116 33.7843 41.4147 35.4817 40.6281 37.1848C39.7983 38.9847 38.9347 40.8124 38.382 42.7166C37.9737 44.1196 37.5056 45.9106 37.4576 47.4696C37.4116 48.9358 37.9097 49.7634 39.0777 49.7634C39.7591 49.7634 40.5348 49.4707 41.1422 49.1087C42.897 48.0623 44.2952 46.598 45.4649 44.9743C46.5801 43.4275 47.5826 41.864 48.592 40.2479C48.9328 39.7037 49.3039 39.1167 49.6548 38.5409C49.8069 37.8153 49.9727 37.0916 50.1431 36.3694C50.9084 33.1235 51.8565 29.9642 53.0365 26.8503C54.236 23.8267 55.3106 20.7432 56.8635 17.8665C57.6321 16.4437 58.3454 15.0514 59.0943 13.6174C59.8944 12.0849 61.2151 10.1909 62.1576 8.74659C64.2355 5.56383 68.1905 0 72.5731 0C73.7551 0 74.9524 0.445206 76.1255 1.51411C77.2126 2.50552 77.6316 4.0237 77.627 5.49806C77.6156 8.54975 76.3228 11.9314 75.099 14.8913C73.8686 17.8702 72.1488 20.8263 70.538 23.6256C67.3576 29.1517 63.1738 34.0061 58.8833 38.6633C57.8117 39.8046 56.7253 40.9235 55.5656 41.9772C54.3841 43.0506 53.691 44.0854 53.6604 45.8128C53.6604 48.62 54.2049 52.2394 57.5852 52.2394C60.5704 52.2394 63.4669 49.354 65.3008 47.3094C67.4777 44.8814 68.9571 42.5983 70.619 39.8066C70.8812 39.3656 71.1011 38.9514 71.3132 38.5395C71.5403 37.9315 71.7741 37.3308 72.0106 36.7398C72.7197 34.9661 73.5387 33.2509 74.3475 31.5221C75.0959 29.9253 75.6755 27.9742 77.0365 26.7605C77.5904 26.2678 78.3641 25.9781 79.1084 25.9781C80.4297 25.9781 81.3973 26.8935 81.3973 28.2584C81.3973 29.5984 80.4643 31.0453 79.899 32.1219C79.0272 33.7843 78.2299 35.4817 77.4437 37.1848C76.6139 38.9847 75.7504 40.8124 75.1976 42.7166C74.7893 44.1196 74.3218 45.9106 74.2727 47.4696C74.2272 48.9358 74.7253 49.7634 75.8933 49.7634C76.5747 49.7634 77.3504 49.4707 77.9578 49.1087C79.7126 48.0623 81.1105 46.598 82.2805 44.9743C83.3957 43.4275 84.3976 41.864 85.4076 40.2479C85.8928 39.4721 86.442 38.6087 86.903 37.8182C87.3665 37.0212 87.6399 36.1874 88.4848 35.7326C88.9766 35.4679 89.4067 35.3597 89.8232 35.3597C90.9515 35.3597 91.9817 36.1564 91.9998 37.4414ZM81.9293 18.4821C82.3762 18.8039 82.9177 18.9472 83.4642 18.9472C83.9731 18.9472 84.4878 18.8234 84.9342 18.6067C86.5708 17.8114 88.046 15.255 88.046 13.3992C88.046 11.3935 86.718 10.2465 85.0814 10.2465C84.6768 10.2465 84.2616 10.3281 83.8627 10.5031C81.8332 11.3935 80.8304 13.539 80.8304 15.6283C80.8304 16.6738 81.0117 17.8207 81.9293 18.4821ZM44.015 15.6283C44.015 13.539 45.0185 11.3935 47.0473 10.5031C47.4464 10.3281 47.8613 10.2465 48.2659 10.2465C49.9026 10.2465 51.2311 11.3935 51.2311 13.3992C51.2311 15.255 49.7554 17.8114 48.1193 18.6067C47.6723 18.8234 47.1577 18.9472 46.6489 18.9472C46.1023 18.9472 45.561 18.8039 45.1138 18.4821C44.1962 17.8207 44.015 16.6738 44.015 15.6283Z" fill="#0E5CF4"/>
</svg>
