<svg width="111" height="57" viewBox="0 0 111 57" fill="none" xmlns="http://www.w3.org/2000/svg">
<path d="M13.4966 33.8464C18.3182 38.0818 32.5681 45.151 32.7984 45.2588C34.6564 46.1675 31.7389 50.6185 30.2801 50.5877C27.731 50.5877 12.4217 41.3469 7.24688 36.7264C6.84765 40.1867 6.70389 43.6717 6.81689 47.1532C6.81689 48.3082 4.97426 48.339 3.19302 48.4469C1.41179 48.5546 0.121939 48.4469 0.0298062 47.5382C-0.538345 29.5956 7.07793 11.7762 17.5657 3.22845C24.0457 -2.05422 35.1324 -1.28416 33.4893 8.75753C32.1227 17.0589 24.1071 28.5637 13.5272 33.8464H13.4966ZM8.56743 29.9806C20.1915 26.0995 30.756 8.98856 27.3779 6.0623C23.9996 3.13604 12.7595 13.5473 8.56743 29.9806ZM108.731 19.6154C107.303 19.1072 105.322 19.0764 105.061 20.2931C103.295 28.2711 100.239 37.019 96.6615 35.9102C95.1259 35.4173 94.1434 33.7231 97.4908 23.435C97.8596 22.2799 96.9845 21.7255 95.6791 21.2327C94.3737 20.7398 92.8995 20.9709 92.6078 21.7871C89.03 30.6275 86.1738 35.6484 83.5941 35.14C80.7073 34.5549 85.0529 25.3756 85.6978 24.0511C86.3428 22.7265 84.6383 22.0489 83.7937 21.7101C82.9492 21.3712 81.5672 20.786 81.0912 21.7101C80.9069 22.0181 80.4924 22.8652 80.2467 23.358C80.3848 19.7079 76.8992 17.6133 73.1832 19.2304C66.4114 22.1875 62.7722 29.7034 62.3115 34.139C62.0351 36.7418 62.7107 39.668 65.2904 40.9002C70.1275 43.195 75.4404 37.3887 76.8992 34.3392C76.7456 37.9894 79.0951 40.238 82.074 40.1301C86.1432 39.9915 89.076 36.0026 89.9052 34.2314C89.2602 40.2533 94.9571 42.5481 99.1182 39.6219C96.656 44.391 93.5563 48.8005 89.9052 52.7284C88.861 53.8835 90.3045 55.3313 90.8266 55.8087C91.6865 56.6558 92.9454 57.3489 93.6829 56.8098C95.9093 55.2697 100.286 50.372 105.153 40.777C107.838 34.9902 109.772 28.8827 110.912 22.6034C111.219 21.0632 110.773 20.3085 108.793 19.6154H108.731ZM68.8683 35.2325C67.6245 34.3546 68.8683 30.5043 70.3118 28.2249C72.3079 24.9136 75.3789 22.4647 76.6996 23.512C78.7419 25.0521 75.9164 29.1335 74.473 31.5515C73.0296 33.9695 70.4806 36.3722 68.8683 35.2325ZM52.1615 31.3514C47.4628 39.1598 41.4127 41.5933 37.2207 41.7165C35.975 41.7771 34.731 41.5684 33.5728 41.105C32.4144 40.6415 31.369 39.9337 30.5071 39.0298C29.6451 38.1258 28.9868 37.0468 28.5768 35.8655C28.1667 34.6842 28.0144 33.4284 28.1303 32.183C28.319 29.3818 29.2806 26.6884 30.9076 24.4038C32.5345 22.1192 34.7628 20.3334 37.3435 19.2459C42.4569 17.3361 47.1096 21.0786 46.1115 25.4064C45.8578 26.6896 45.3515 27.9091 44.6224 28.9937C43.8933 30.0784 42.9558 31.0063 41.865 31.7234C40.7741 32.4404 39.5516 32.932 38.2691 33.1696C36.9865 33.4072 35.6695 33.3859 34.3953 33.1071C34.6563 36.1874 37.9425 37.8969 42.5798 35.5097C45.6509 33.9696 49.0597 30.8893 52.2844 23.0962C54.6798 17.2437 58.0888 5.21522 59.6089 2.55078C60.0543 1.78071 61.6359 1.99635 62.9871 2.65861C64.3384 3.32086 65.7204 4.27572 65.2904 5.47704C62.4879 12.577 60.3344 19.9177 58.8565 27.4086C57.6468 33.5269 57.7988 39.8377 59.3018 45.8902C59.6396 47.1686 58.0274 47.9695 57.0446 48.1696C56.4514 48.3464 55.8178 48.3314 55.2335 48.1269C54.6492 47.9223 54.144 47.5386 53.7892 47.03C51.2403 42.4096 51.5166 36.7264 52.1155 31.3822L52.1615 31.3514ZM34.2878 29.6264C39.0173 31.1665 43.2093 25.9763 41.7505 23.8663C40.2917 21.7563 34.9174 24.0819 34.2878 29.6264Z" fill="#004822"/>
</svg>
