<svg width="84" height="76" viewBox="0 0 84 76" fill="none" xmlns="http://www.w3.org/2000/svg">
<path d="M75.1154 0H8.88464C3.98557 0 0 3.98573 0 8.88464V45.2307V50.8847C0 55.7836 3.98557 59.7693 8.88464 59.7693H30.3373L27.7527 72.6923H19.3846C18.4925 72.6923 17.7693 73.4155 17.7693 74.3077C17.7693 75.1999 18.4925 75.9231 19.3846 75.9231H64.6154C65.5075 75.9231 66.2307 75.1999 66.2307 74.3077C66.2307 73.4155 65.5075 72.6923 64.6154 72.6923H56.2474L53.6627 59.7693H75.1154C80.0143 59.7693 84 55.7837 84 50.8847V45.2307V8.88464C84 3.98573 80.0144 0 75.1154 0ZM31.0474 72.6923L33.632 59.7693H50.368L52.9527 72.6923H31.0474ZM80.7693 50.8847C80.7693 54.0022 78.2331 56.5386 75.1154 56.5386H8.88464C5.76713 56.5386 3.23072 54.0023 3.23072 50.8847V46.8463H80.7691V50.8847H80.7693ZM80.7693 43.6155H3.23072V40.3848H12.923C13.8152 40.3848 14.5384 39.6616 14.5384 38.7695C14.5384 37.8773 13.8152 37.1541 12.923 37.1541H3.23072V8.88464C3.23072 5.76713 5.76696 3.23072 8.88464 3.23072H75.1154C78.2329 3.23072 80.7693 5.76696 80.7693 8.88464V43.6155Z" fill="#006afe"/>
<path d="M42.0001 48.4616C40.2187 48.4616 38.7693 49.9109 38.7693 51.6923C38.7693 53.4737 40.2187 54.923 42.0001 54.923C43.7815 54.923 45.2308 53.4737 45.2308 51.6923C45.2308 49.9109 43.7815 48.4616 42.0001 48.4616Z" fill="#006afe"/>
<path d="M55.2254 30.9374L51.7987 27.5106L54.6543 24.6551C55.0696 24.2399 55.2268 23.632 55.0648 23.0675C54.9029 22.5031 54.4475 22.071 53.8752 21.9387L39.0259 18.512C38.4834 18.3871 37.9144 18.5499 37.5203 18.9438C37.1266 19.3377 36.9633 19.9065 37.0885 20.4494L40.5156 35.2985C40.6477 35.8706 41.0798 36.3262 41.6443 36.4881C42.2091 36.6499 42.8166 36.4927 43.232 36.0777L46.0875 33.222L49.5143 36.6488C49.8298 36.9642 50.2432 37.1219 50.6565 37.1219C51.0697 37.1219 51.4833 36.9642 51.7987 36.6488L55.2254 33.222C55.8561 32.5912 55.8561 31.5684 55.2254 30.9374ZM50.6565 33.222L47.2297 29.7952C46.9142 29.4797 46.5008 29.3221 46.0875 29.3221C45.6742 29.3221 45.2606 29.4797 44.9453 29.7952L43.0084 31.7323L40.8181 22.2414L50.309 24.4315L48.3719 26.3684C47.7411 26.9993 47.7411 28.0222 48.3719 28.653L51.7987 32.0798L50.6565 33.222Z" fill="#006afe"/>
<path d="M35.351 14.4891L33.7357 12.8737C33.1049 12.2429 32.0819 12.2429 31.4511 12.8737C30.8203 13.5045 30.8203 14.5273 31.4511 15.1583L33.0666 16.7736C33.3821 17.0891 33.7956 17.2468 34.2088 17.2468C34.6221 17.2468 35.0357 17.0891 35.351 16.7736C35.9819 16.143 35.9819 15.1201 35.351 14.4891Z" fill="#006afe"/>
<path d="M32.2012 18.8625H29.9168C29.0246 18.8625 28.3015 19.5857 28.3015 20.4778C28.3015 21.37 29.0246 22.0932 29.9168 22.0932H32.2012C33.0934 22.0932 33.8166 21.37 33.8166 20.4778C33.8166 19.5857 33.0934 18.8625 32.2012 18.8625Z" fill="#006afe"/>
<path d="M35.3508 24.1817C34.7202 23.5509 33.6974 23.5509 33.0664 24.1817L31.451 25.7971C30.8202 26.4279 30.8202 27.4509 31.451 28.0817C31.7665 28.3972 32.18 28.5548 32.5933 28.5548C33.0065 28.5548 33.4201 28.3972 33.7355 28.0817L35.3508 26.4663C35.9816 25.8357 35.9816 24.8127 35.3508 24.1817Z" fill="#006afe"/>
<path d="M46.6586 12.8737C46.0278 12.2429 45.0051 12.2429 44.3741 12.8737L42.7587 14.4891C42.1279 15.1199 42.1279 16.1428 42.7587 16.7736C43.0742 17.0891 43.4876 17.2468 43.9011 17.2468C44.3145 17.2468 44.728 17.0891 45.0433 16.7736L46.6586 15.1583C47.2895 14.5276 47.2895 13.5047 46.6586 12.8737Z" fill="#006afe"/>
<path d="M39.055 9.72431C38.1628 9.72431 37.4396 10.4475 37.4396 11.3397V13.6241C37.4396 14.5162 38.1628 15.2394 39.055 15.2394C39.9472 15.2394 40.6703 14.5162 40.6703 13.6241V11.3397C40.6703 10.4475 39.9472 9.72431 39.055 9.72431Z" fill="#006afe"/>
<path d="M19.3522 38.4543C19.3329 38.3509 19.3005 38.2492 19.2602 38.1506C19.2198 38.0536 19.1698 37.9599 19.1115 37.8726C19.0535 37.7837 18.9855 37.7014 18.9112 37.627C18.8369 37.5527 18.7545 37.485 18.6656 37.4267C18.5783 37.3687 18.4847 37.3184 18.3862 37.2781C18.2893 37.2377 18.1875 37.2054 18.0842 37.186C17.8758 37.144 17.6625 37.144 17.4542 37.186C17.3508 37.2054 17.2491 37.2377 17.1521 37.2781C17.0535 37.3184 16.9599 37.3685 16.8727 37.4267C16.7838 37.4848 16.7015 37.5527 16.6271 37.627C16.5528 37.7014 16.4851 37.7837 16.4268 37.8726C16.3687 37.9599 16.3185 38.0536 16.2782 38.1506C16.2378 38.2492 16.2055 38.3509 16.1861 38.4543C16.1651 38.5576 16.1538 38.6643 16.1538 38.7693C16.1538 38.8743 16.1651 38.9809 16.1861 39.0843C16.2055 39.1876 16.2378 39.2893 16.2782 39.3863C16.3185 39.4849 16.3686 39.5786 16.4268 39.6657C16.4849 39.7546 16.5528 39.837 16.6271 39.9113C16.7015 39.9856 16.7838 40.0534 16.8727 40.1116C16.96 40.1697 17.0537 40.2199 17.1521 40.2603C17.2491 40.3006 17.3508 40.3329 17.4542 40.3539C17.5575 40.3749 17.6642 40.3846 17.7692 40.3846C17.8742 40.3846 17.9808 40.3749 18.0842 40.3539C18.1875 40.3329 18.2893 40.3006 18.3862 40.2603C18.4848 40.2199 18.5785 40.1699 18.6656 40.1116C18.7545 40.0535 18.8369 39.9856 18.9112 39.9113C18.9855 39.837 19.0533 39.7546 19.1115 39.6657C19.1696 39.5784 19.2198 39.4847 19.2602 39.3863C19.3005 39.2893 19.3329 39.1876 19.3522 39.0843C19.3732 38.9809 19.3845 38.8743 19.3845 38.7693C19.3845 38.6643 19.3732 38.5576 19.3522 38.4543Z" fill="#006afe"/>
</svg>
