<svg width="348" height="81" viewBox="0 0 348 81" fill="none" xmlns="http://www.w3.org/2000/svg">
<path d="M60.1428 40.0069C60.1428 37.0042 62.1741 34.9729 65.265 34.9729C68.0911 34.9729 70.034 37.0042 70.034 40.0069C70.034 42.9212 68.0911 44.8641 65.265 44.8641C62.1741 44.8641 60.1428 42.9212 60.1428 40.0069ZM52.5476 24.2867C54.314 21.7256 55.462 18.6345 55.462 14.3071C59.7895 16.8683 63.4102 20.4891 65.9714 24.8166C61.7323 24.8166 58.6412 25.9645 56.0803 27.8193C55.1086 26.4945 53.8724 25.2583 52.5476 24.2867ZM52.3708 55.9035C53.6956 54.9323 54.8439 53.6956 55.9035 52.4592C58.4647 54.4024 61.6442 55.5504 65.9714 55.5504C63.4102 59.966 59.7895 63.5871 55.462 66.0598C55.462 61.6442 54.314 58.4647 52.3708 55.9035ZM49.7215 3.4443C66.2364 7.59512 78.0707 22.2555 78.0707 40.1835C78.0707 47.6902 72.4186 53.2541 65.0884 53.2541C62.0857 53.2541 59.2595 52.2827 57.1401 50.6929C58.2881 48.8385 59.083 46.8072 59.6129 44.5991C61.0259 46.1889 63.0571 47.1603 65.265 47.1603C69.0625 47.1603 72.3302 43.8926 72.3302 40.0069C72.3302 27.7311 65.265 16.9566 54.9323 11.5693C54.1374 8.38995 52.1943 5.47555 49.7215 3.4443ZM45.5708 50.6929C49.3684 48.7501 52.0177 44.7759 52.0177 40.1835C52.0177 31.5284 59.7011 25.8764 67.2962 27.2893C68.2677 29.409 68.9741 31.7934 69.5041 34.178C68.2677 33.2066 66.8547 32.6767 65.265 32.6767C61.2024 32.6767 57.8463 36.0328 57.8463 40.0069C57.8463 46.0123 55.1086 51.1344 50.9579 54.314C49.4565 52.7242 47.6018 51.4878 45.5708 50.6929ZM35.2379 15.3668C35.2379 12.3641 37.2691 10.3329 40.36 10.3329C43.1862 10.3329 45.129 12.3641 45.129 15.3668C45.129 18.2812 43.1862 20.2241 40.36 20.2241C37.2691 20.2241 35.2379 18.2812 35.2379 15.3668ZM35.2379 65.1768C35.2379 62.1741 37.2691 60.1428 40.36 60.1428C43.1862 60.1428 45.129 62.1741 45.129 65.1768C45.129 68.0911 43.1862 70.034 40.36 70.034C37.2691 70.034 35.2379 68.0911 35.2379 65.1768ZM30.6454 40.1835C30.6454 34.708 34.708 30.6454 40.2719 30.6454C45.7474 30.6454 49.7215 34.708 49.7215 40.1835C49.7215 45.7474 45.7474 49.7215 40.2719 49.7215C34.708 49.7215 30.6454 45.7474 30.6454 40.1835ZM40.2719 28.3492C31.7934 28.3492 26.1413 21.284 27.3777 13.159C29.5856 12.0992 32.0584 11.3044 34.5311 10.8628C33.5597 12.0992 32.9416 13.6889 32.9416 15.3668C32.9416 19.2527 36.2975 22.5205 40.36 22.5205C46.2773 22.5205 51.3994 24.9933 54.4905 29.1441C52.8126 30.7338 51.5762 32.6767 50.6929 34.7961C48.7501 30.9985 44.7759 28.3492 40.2719 28.3492ZM27.2012 65C27.2012 61.9973 28.1726 59.2595 29.7624 57.1401C31.5284 58.1997 33.4716 59.083 35.591 59.6129C34.0012 60.9375 32.9416 62.969 32.9416 65.1768C32.9416 69.0625 36.2975 72.3302 40.36 72.3302C52.7242 72.3302 63.3221 65.3534 68.621 55.1086C71.8887 54.314 74.803 52.4592 76.8343 49.8981C72.6836 66.3248 58.1113 78.0707 40.1835 78.0707C32.8532 78.0707 27.2012 72.4186 27.2012 65ZM26.1413 51.0463C27.6427 49.4565 28.8791 47.6018 29.674 45.5708C31.6168 49.3684 35.6794 52.0177 40.2719 52.0177C48.7501 52.0177 54.314 59.5245 52.9892 67.3846C50.7813 68.3561 48.3967 69.1509 45.9239 69.5925C46.8072 68.3561 47.4253 66.8547 47.4253 65.1768C47.4253 61.2024 44.1576 57.8463 40.36 57.8463C34.443 57.8463 29.3206 55.197 26.1413 51.0463ZM14.4838 55.5504C18.7228 55.5504 21.9022 54.4024 24.4634 52.4592C25.523 53.6956 26.6713 54.9323 27.9961 55.9035C26.0529 58.4647 24.905 61.6442 24.905 65.9714C20.5774 63.4102 17.0449 59.8779 14.4838 55.5504ZM14.3954 24.8166C16.9566 20.5774 20.5774 16.9566 24.905 14.3954C24.905 18.8112 26.0529 21.9905 28.0842 24.5517C26.7594 25.523 25.523 26.6713 24.5517 27.9961C21.9905 25.9645 18.8112 24.8166 14.3954 24.8166ZM10.7745 45.5708C12.0992 46.5422 13.6889 47.1603 15.4551 47.1603C19.2527 47.1603 22.5205 43.8926 22.5205 40.0069C22.5205 34.2662 25.2583 29.3206 29.409 26.1413C30.9985 27.6427 32.8532 28.8791 34.8845 29.674C30.9985 31.6168 28.3492 35.6794 28.3492 40.1835C28.3492 48.8385 21.019 54.314 13.159 53.0776C12.0992 50.6929 11.3044 48.2201 10.7745 45.5708ZM10.3329 40.0069C10.3329 37.0042 12.3641 34.9729 15.4551 34.9729C18.2812 34.9729 20.2241 37.0042 20.2241 40.0069C20.2241 42.9212 18.2812 44.8641 15.4551 44.8641C12.3641 44.8641 10.3329 42.9212 10.3329 40.0069ZM3.4443 30.5573C7.68343 14.0422 22.2555 2.29619 40.095 2.29619C47.5137 2.29619 53.1657 7.94836 53.1657 15.2785C53.1657 18.2812 52.2827 20.9307 50.7813 23.0502C49.015 21.9905 47.0719 21.1957 44.9525 20.754C46.4538 19.4294 47.4253 17.4864 47.4253 15.3668C47.4253 11.3927 44.1576 8.03669 40.36 8.03669C27.9077 8.03669 17.1332 15.1019 11.7459 25.2583C8.47826 26.0529 5.56385 27.9961 3.4443 30.5573ZM2.29619 40.1835C2.29619 32.7651 7.94836 27.1128 15.3668 27.1128C18.3696 27.1128 21.1073 28.0842 23.2269 29.7624C22.1672 31.4403 21.3723 33.295 20.8424 35.326C19.5177 33.7363 17.5747 32.6767 15.4551 32.6767C11.3927 32.6767 8.03669 36.0328 8.03669 40.0069C8.03669 52.5476 15.0135 63.2337 25.3465 68.7092C26.1413 71.9769 28.0842 74.803 30.6454 76.9227C14.1305 72.8601 2.29619 58.1997 2.29619 40.1835ZM40.095 80.3669C61.5558 80.3669 80.3669 63.2337 80.3669 40.1835C80.3669 17.9279 62.4391 0 40.095 0C17.9279 0 0 17.9279 0 40.1835C0 62.4391 17.9279 80.3669 40.095 80.3669Z" fill="black"/>
<path d="M60.1428 40.0069C60.1428 37.0042 62.1741 34.9729 65.265 34.9729C68.0911 34.9729 70.034 37.0042 70.034 40.0069C70.034 42.9212 68.0911 44.8641 65.265 44.8641C62.1741 44.8641 60.1428 42.9212 60.1428 40.0069ZM52.5476 24.2867C54.314 21.7256 55.462 18.6345 55.462 14.3071C59.7895 16.8683 63.4102 20.4891 65.9714 24.8166C61.7323 24.8166 58.6412 25.9645 56.0803 27.8193C55.1086 26.4945 53.8724 25.2583 52.5476 24.2867ZM52.3708 55.9035C53.6956 54.9323 54.8439 53.6956 55.9035 52.4592C58.4647 54.4024 61.6442 55.5504 65.9714 55.5504C63.4102 59.966 59.7895 63.5871 55.462 66.0598C55.462 61.6442 54.314 58.4647 52.3708 55.9035ZM49.7215 3.4443C66.2364 7.59512 78.0707 22.2555 78.0707 40.1835C78.0707 47.6902 72.4186 53.2541 65.0884 53.2541C62.0857 53.2541 59.2595 52.2827 57.1401 50.6929C58.2881 48.8385 59.083 46.8072 59.6129 44.5991C61.0259 46.1889 63.0571 47.1603 65.265 47.1603C69.0625 47.1603 72.3302 43.8926 72.3302 40.0069C72.3302 27.7311 65.265 16.9566 54.9323 11.5693C54.1374 8.38995 52.1943 5.47555 49.7215 3.4443ZM45.5708 50.6929C49.3684 48.7501 52.0177 44.7759 52.0177 40.1835C52.0177 31.5284 59.7011 25.8764 67.2962 27.2893C68.2677 29.409 68.9741 31.7934 69.5041 34.178C68.2677 33.2066 66.8547 32.6767 65.265 32.6767C61.2024 32.6767 57.8463 36.0328 57.8463 40.0069C57.8463 46.0123 55.1086 51.1344 50.9579 54.314C49.4565 52.7242 47.6018 51.4878 45.5708 50.6929ZM35.2379 15.3668C35.2379 12.3641 37.2691 10.3329 40.36 10.3329C43.1862 10.3329 45.129 12.3641 45.129 15.3668C45.129 18.2812 43.1862 20.2241 40.36 20.2241C37.2691 20.2241 35.2379 18.2812 35.2379 15.3668ZM35.2379 65.1768C35.2379 62.1741 37.2691 60.1428 40.36 60.1428C43.1862 60.1428 45.129 62.1741 45.129 65.1768C45.129 68.0911 43.1862 70.034 40.36 70.034C37.2691 70.034 35.2379 68.0911 35.2379 65.1768ZM30.6454 40.1835C30.6454 34.708 34.708 30.6454 40.2719 30.6454C45.7474 30.6454 49.7215 34.708 49.7215 40.1835C49.7215 45.7474 45.7474 49.7215 40.2719 49.7215C34.708 49.7215 30.6454 45.7474 30.6454 40.1835ZM40.2719 28.3492C31.7934 28.3492 26.1413 21.284 27.3777 13.159C29.5856 12.0992 32.0584 11.3044 34.5311 10.8628C33.5597 12.0992 32.9416 13.6889 32.9416 15.3668C32.9416 19.2527 36.2975 22.5205 40.36 22.5205C46.2773 22.5205 51.3994 24.9933 54.4905 29.1441C52.8126 30.7338 51.5762 32.6767 50.6929 34.7961C48.7501 30.9985 44.7759 28.3492 40.2719 28.3492ZM27.2012 65C27.2012 61.9973 28.1726 59.2595 29.7624 57.1401C31.5284 58.1997 33.4716 59.083 35.591 59.6129C34.0012 60.9375 32.9416 62.969 32.9416 65.1768C32.9416 69.0625 36.2975 72.3302 40.36 72.3302C52.7242 72.3302 63.3221 65.3534 68.621 55.1086C71.8887 54.314 74.803 52.4592 76.8343 49.8981C72.6836 66.3248 58.1113 78.0707 40.1835 78.0707C32.8532 78.0707 27.2012 72.4186 27.2012 65ZM26.1413 51.0463C27.6427 49.4565 28.8791 47.6018 29.674 45.5708C31.6168 49.3684 35.6794 52.0177 40.2719 52.0177C48.7501 52.0177 54.314 59.5245 52.9892 67.3846C50.7813 68.3561 48.3967 69.1509 45.9239 69.5925C46.8072 68.3561 47.4253 66.8547 47.4253 65.1768C47.4253 61.2024 44.1576 57.8463 40.36 57.8463C34.443 57.8463 29.3206 55.197 26.1413 51.0463ZM14.4838 55.5504C18.7228 55.5504 21.9022 54.4024 24.4634 52.4592C25.523 53.6956 26.6713 54.9323 27.9961 55.9035C26.0529 58.4647 24.905 61.6442 24.905 65.9714C20.5774 63.4102 17.0449 59.8779 14.4838 55.5504ZM14.3954 24.8166C16.9566 20.5774 20.5774 16.9566 24.905 14.3954C24.905 18.8112 26.0529 21.9905 28.0842 24.5517C26.7594 25.523 25.523 26.6713 24.5517 27.9961C21.9905 25.9645 18.8112 24.8166 14.3954 24.8166ZM10.7745 45.5708C12.0992 46.5422 13.6889 47.1603 15.4551 47.1603C19.2527 47.1603 22.5205 43.8926 22.5205 40.0069C22.5205 34.2662 25.2583 29.3206 29.409 26.1413C30.9985 27.6427 32.8532 28.8791 34.8845 29.674C30.9985 31.6168 28.3492 35.6794 28.3492 40.1835C28.3492 48.8385 21.019 54.314 13.159 53.0776C12.0992 50.6929 11.3044 48.2201 10.7745 45.5708ZM10.3329 40.0069C10.3329 37.0042 12.3641 34.9729 15.4551 34.9729C18.2812 34.9729 20.2241 37.0042 20.2241 40.0069C20.2241 42.9212 18.2812 44.8641 15.4551 44.8641C12.3641 44.8641 10.3329 42.9212 10.3329 40.0069ZM3.4443 30.5573C7.68343 14.0422 22.2555 2.29619 40.095 2.29619C47.5137 2.29619 53.1657 7.94836 53.1657 15.2785C53.1657 18.2812 52.2827 20.9307 50.7813 23.0502C49.015 21.9905 47.0719 21.1957 44.9525 20.754C46.4538 19.4294 47.4253 17.4864 47.4253 15.3668C47.4253 11.3927 44.1576 8.03669 40.36 8.03669C27.9077 8.03669 17.1332 15.1019 11.7459 25.2583C8.47826 26.0529 5.56385 27.9961 3.4443 30.5573ZM2.29619 40.1835C2.29619 32.7651 7.94836 27.1128 15.3668 27.1128C18.3696 27.1128 21.1073 28.0842 23.2269 29.7624C22.1672 31.4403 21.3723 33.295 20.8424 35.326C19.5177 33.7363 17.5747 32.6767 15.4551 32.6767C11.3927 32.6767 8.03669 36.0328 8.03669 40.0069C8.03669 52.5476 15.0135 63.2337 25.3465 68.7092C26.1413 71.9769 28.0842 74.803 30.6454 76.9227C14.1305 72.8601 2.29619 58.1997 2.29619 40.1835ZM40.095 80.3669C61.5558 80.3669 80.3669 63.2337 80.3669 40.1835C80.3669 17.9279 62.4391 0 40.095 0C17.9279 0 0 17.9279 0 40.1835C0 62.4391 17.9279 80.3669 40.095 80.3669Z" fill="black"/>
<path fill-rule="evenodd" clip-rule="evenodd" d="M110.504 25.9616H118.421L125.814 46.1739H125.935L133.248 25.9616H141.205V54.4115H136.182V31.5471H136.101L127.462 54.4115H123.926L115.407 31.5471H115.326V54.4115H110.504V25.9616ZM155.063 25.9616H173.909V30.3818H160.126V37.6148H173.186V41.8742H160.126V49.9109H174.633V54.4115H155.063V25.9616ZM196.367 38.2175C197.091 38.2175 197.814 38.164 198.537 38.0568C199.261 37.9496 199.91 37.7486 200.486 37.454C201.062 37.1595 201.538 36.7375 201.913 36.1883C202.288 35.639 202.475 34.9358 202.475 34.0786C202.475 33.3018 202.301 32.6654 201.953 32.1699C201.605 31.6744 201.163 31.2791 200.627 30.9845C200.091 30.6899 199.482 30.489 198.799 30.3818C198.115 30.2745 197.452 30.221 196.809 30.221H192.229V38.2175H196.367ZM187.165 25.9616H197.051C198.39 25.9616 199.689 26.1022 200.948 26.3835C202.208 26.6648 203.326 27.1269 204.304 27.7698C205.282 28.4128 206.065 29.2566 206.654 30.3014C207.244 31.3462 207.538 32.6187 207.538 34.1188C207.538 36.1815 206.956 37.8627 205.79 39.1618C204.625 40.461 203.038 41.3385 201.029 41.7939L208.623 54.4115H202.515L195.925 42.3564H192.229V54.4115H187.165V25.9616ZM240.565 32.632C239.815 31.6141 238.837 30.8707 237.632 30.4019C236.426 29.933 235.247 29.6986 234.095 29.6986C232.622 29.6986 231.283 29.9666 230.077 30.5023C228.872 31.038 227.833 31.7749 226.963 32.7124C226.092 33.6499 225.422 34.7484 224.954 36.0074C224.485 37.2664 224.25 38.6327 224.25 40.1062C224.25 41.66 224.478 43.0797 224.934 44.3656C225.389 45.6515 226.039 46.7565 226.882 47.6807C227.726 48.605 228.737 49.3215 229.916 49.8306C231.095 50.3396 232.421 50.594 233.895 50.594C235.421 50.594 236.774 50.2927 237.953 49.6899C239.132 49.0872 240.083 48.2903 240.806 47.299L244.865 50.152C243.605 51.7325 242.065 52.9581 240.243 53.8288C238.422 54.6995 236.292 55.1348 233.854 55.1348C231.631 55.1348 229.588 54.7663 227.726 54.0297C225.864 53.2931 224.264 52.2617 222.924 50.9356C221.585 49.6095 220.54 48.0291 219.79 46.1939C219.04 44.3588 218.665 42.3296 218.665 40.1062C218.665 37.829 219.06 35.7731 219.85 33.938C220.64 32.1029 221.725 30.5425 223.105 29.2566C224.485 27.9708 226.112 26.9795 227.988 26.283C229.863 25.5866 231.899 25.2383 234.095 25.2383C235.006 25.2383 235.957 25.3254 236.948 25.4995C237.939 25.6735 238.891 25.9415 239.801 26.3031C240.712 26.6648 241.57 27.1136 242.373 27.6493C243.177 28.185 243.86 28.8279 244.423 29.5781L240.565 32.632ZM278.253 43.9638C278.253 45.6783 277.959 47.2254 277.369 48.605C276.779 49.9845 275.975 51.1566 274.958 52.121C273.941 53.0854 272.735 53.8288 271.341 54.3512C269.947 54.8736 268.435 55.1348 266.8 55.1348C265.166 55.1348 263.654 54.8736 262.26 54.3512C260.866 53.8288 259.655 53.0854 258.623 52.121C257.591 51.1566 256.787 49.9845 256.212 48.605C255.637 47.2254 255.348 45.6783 255.348 43.9638V25.9616H260.411V43.7628C260.411 44.5934 260.519 45.4172 260.733 46.2341C260.946 47.0511 261.303 47.7812 261.798 48.4241C262.292 49.0671 262.95 49.5894 263.767 49.9913C264.583 50.3931 265.595 50.594 266.8 50.594C268.006 50.594 269.018 50.3931 269.834 49.9913C270.651 49.5894 271.309 49.0671 271.803 48.4241C272.298 47.7812 272.655 47.0511 272.868 46.2341C273.082 45.4172 273.19 44.5934 273.19 43.7628V25.9616H278.253V43.9638ZM301.072 38.2175C301.795 38.2175 302.519 38.164 303.242 38.0568C303.965 37.9496 304.616 37.7486 305.191 37.454C305.766 37.1595 306.243 36.7375 306.617 36.1883C306.991 35.639 307.18 34.9358 307.18 34.0786C307.18 33.3018 307.007 32.6654 306.657 32.1699C306.308 31.6744 305.866 31.2791 305.331 30.9845C304.796 30.6899 304.186 30.489 303.503 30.3818C302.82 30.2745 302.157 30.221 301.514 30.221H296.933V38.2175H301.072ZM291.87 25.9616H301.755C303.094 25.9616 304.395 26.1022 305.653 26.3835C306.911 26.6648 308.031 27.1269 309.008 27.7698C309.985 28.4128 310.769 29.2566 311.359 30.3014C311.949 31.3462 312.243 32.6187 312.243 34.1188C312.243 36.1815 311.66 37.8627 310.495 39.1618C309.33 40.461 307.742 41.3385 305.733 41.7939L313.328 54.4115H307.22L300.63 42.3564H296.933V54.4115H291.87V25.9616ZM331.325 42.0751L320.636 25.9616H326.824L333.977 37.9363L341.21 25.9616H347.077L336.388 42.0751V54.4115H331.325V42.0751Z" fill="black"/>
</svg>
