<?xml version="1.0" standalone="no"?>
<!DOCTYPE svg PUBLIC "-//W3C//DTD SVG 20010904//EN"
 "http://www.w3.org/TR/2001/REC-SVG-20010904/DTD/svg10.dtd">
<svg version="1.0" xmlns="http://www.w3.org/2000/svg"
 width="1080.000000pt" height="510.000000pt" viewBox="0 0 1080.000000 510.000000"
 preserveAspectRatio="xMidYMid meet">

<g transform="translate(0.000000,510.000000) scale(0.100000,-0.100000)"
fill="#000000" stroke="none">
<path d="M5215 5090 c-3 -5 -16 -10 -28 -10 -32 0 -199 -36 -277 -60 -14 -4
-45 -13 -70 -20 -77 -22 -321 -147 -412 -213 -150 -107 -308 -271 -404 -418
-135 -206 -191 -347 -254 -649 -14 -68 -8 -438 9 -525 12 -63 47 -196 61 -230
5 -11 16 -40 25 -65 42 -112 148 -303 219 -394 44 -56 233 -246 286 -287 130
-101 257 -173 430 -243 210 -84 515 -122 740 -91 69 10 143 19 165 22 22 3 44
9 50 14 5 5 18 9 29 9 27 0 156 45 244 86 40 19 76 34 78 34 14 0 195 118 257
167 140 112 153 130 55 77 -78 -42 -225 -99 -298 -114 -30 -7 -68 -16 -84 -21
-41 -13 -358 -11 -430 2 -99 17 -270 77 -364 125 -207 108 -401 297 -512 499
-37 68 -100 222 -100 245 0 9 -4 20 -8 26 -35 38 -51 411 -23 529 8 33 18 64
23 70 4 5 8 15 8 22 0 26 59 139 109 208 86 120 163 192 276 256 159 90 247
113 450 113 169 1 239 -12 364 -70 218 -100 395 -295 466 -511 12 -36 21 -50
31 -46 8 3 14 11 14 18 0 7 3 15 8 17 6 3 52 92 73 143 4 11 19 67 33 124 46
184 29 390 -45 558 -11 24 -19 45 -19 47 0 6 -72 129 -80 136 -3 3 -23 27 -45
54 -81 102 -191 188 -312 247 -44 21 -88 39 -96 39 -9 0 -19 5 -22 10 -3 6
-17 10 -31 10 -13 0 -32 4 -42 9 -9 5 -62 17 -117 27 -55 10 -104 21 -109 26
-14 12 -314 10 -321 -2z"/>
<path d="M6650 4446 c0 -15 18 -31 26 -23 7 7 -7 37 -17 37 -5 0 -9 -6 -9 -14z"/>
<path d="M6694 4345 c-3 -13 -4 -30 -1 -37 3 -7 6 -3 6 10 1 12 6 22 11 22 6
0 10 7 10 15 0 24 -19 17 -26 -10z"/>
<path d="M6732 4290 c0 -14 2 -19 5 -12 2 6 2 18 0 25 -3 6 -5 1 -5 -13z"/>
<path d="M6752 4220 c0 -14 2 -19 5 -12 2 6 2 18 0 25 -3 6 -5 1 -5 -13z"/>
<path d="M6690 4210 c0 -19 3 -21 12 -12 9 9 9 15 0 24 -9 9 -12 7 -12 -12z"/>
<path d="M6766 4126 c-4 -15 -1 -36 6 -49 12 -21 13 -20 16 17 4 46 -12 70
-22 32z"/>
<path d="M6712 3975 c0 -16 2 -22 5 -12 2 9 2 23 0 30 -3 6 -5 -1 -5 -18z"/>
<path d="M6796 3924 c-3 -9 -6 -24 -6 -34 0 -30 -28 -32 -39 -2 l-9 27 -1 -32
c-1 -27 3 -32 26 -35 22 -2 29 -10 34 -33 4 -19 7 -2 8 48 1 77 -2 90 -13 61z"/>
<path d="M6692 3825 c0 -16 2 -22 5 -12 2 9 2 23 0 30 -3 6 -5 -1 -5 -18z"/>
<path d="M6782 3740 c0 -14 2 -19 5 -12 2 6 2 18 0 25 -3 6 -5 1 -5 -13z"/>
<path d="M6730 3703 c0 -24 -5 -43 -12 -46 -7 -2 -9 -8 -5 -13 4 -5 11 -4 15
2 4 6 17 14 30 18 12 4 22 15 22 24 0 15 -2 15 -10 2 -7 -12 -12 -7 -24 20
l-15 35 -1 -42z"/>
<path d="M6686 3685 c-3 -8 -1 -15 4 -15 6 0 10 7 10 15 0 8 -2 15 -4 15 -2 0
-6 -7 -10 -15z"/>
<path d="M6942 3670 c0 -14 2 -19 5 -12 2 6 2 18 0 25 -3 6 -5 1 -5 -13z"/>
<path d="M6626 3651 c-4 -7 -5 -15 -2 -18 9 -9 19 4 14 18 -4 11 -6 11 -12 0z"/>
<path d="M6752 3600 c0 -14 2 -19 5 -12 2 6 2 18 0 25 -3 6 -5 1 -5 -13z"/>
<path d="M6602 3590 c0 -14 2 -19 5 -12 2 6 2 18 0 25 -3 6 -5 1 -5 -13z"/>
<path d="M6950 3556 c0 -20 5 -36 10 -36 6 0 10 13 10 29 0 17 -4 33 -10 36
-6 4 -10 -8 -10 -29z"/>
<path d="M6692 3550 c0 -14 2 -19 5 -12 2 6 2 18 0 25 -3 6 -5 1 -5 -13z"/>
<path d="M6711 3484 c0 -11 3 -14 6 -6 3 7 2 16 -1 19 -3 4 -6 -2 -5 -13z"/>
<path d="M6592 3469 c2 -6 8 -10 13 -10 5 0 11 4 13 10 2 6 -4 11 -13 11 -9 0
-15 -5 -13 -11z"/>
<path d="M6950 3465 c0 -8 5 -15 10 -15 6 0 10 7 10 15 0 8 -4 15 -10 15 -5 0
-10 -7 -10 -15z"/>
<path d="M6530 3435 c0 -8 2 -15 4 -15 2 0 6 7 10 15 3 8 1 15 -4 15 -6 0 -10
-7 -10 -15z"/>
<path d="M6898 3434 c-5 -4 -8 -17 -8 -30 0 -12 -5 -24 -11 -26 -6 -2 -9 -15
-7 -28 4 -23 5 -22 21 15 17 38 20 85 5 69z"/>
<path d="M6593 3404 c-3 -9 3 -24 16 -35 l21 -20 0 30 c0 32 -27 51 -37 25z"/>
<path d="M6490 3384 c0 -17 22 -14 28 4 2 7 -3 12 -12 12 -9 0 -16 -7 -16 -16z"/>
<path d="M6533 3354 c-8 -21 13 -42 28 -27 13 13 5 43 -11 43 -6 0 -13 -7 -17
-16z"/>
<path d="M6460 3345 c0 -8 4 -15 9 -15 5 0 11 7 15 15 3 9 0 15 -9 15 -8 0
-15 -7 -15 -15z"/>
<path d="M6952 3340 c0 -14 2 -19 5 -12 2 6 2 18 0 25 -3 6 -5 1 -5 -13z"/>
<path d="M6574 3273 c-18 -18 -34 -42 -37 -53 -7 -28 16 -14 38 23 10 18 23
35 28 38 5 4 8 11 6 16 -2 6 -18 -5 -35 -24z"/>
<path d="M6885 3291 c-3 -5 -1 -12 4 -15 5 -3 11 1 15 9 6 16 -9 21 -19 6z"/>
<path d="M6460 3267 c0 -7 -9 -19 -20 -27 -11 -8 -20 -20 -20 -27 0 -7 -5 -13
-12 -13 -6 0 -8 -3 -5 -7 4 -3 23 11 42 33 36 41 42 54 25 54 -5 0 -10 -6 -10
-13z"/>
<path d="M6502 3268 c6 -18 28 -21 28 -4 0 9 -7 16 -16 16 -9 0 -14 -5 -12
-12z"/>
<path d="M6866 3224 c-9 -25 -7 -72 4 -79 6 -4 10 13 10 44 0 53 -4 62 -14 35z"/>
<path d="M6932 3215 c0 -16 2 -22 5 -12 2 9 2 23 0 30 -3 6 -5 -1 -5 -18z"/>
<path d="M6817 3224 c-8 -8 3 -34 14 -34 5 0 9 9 9 20 0 19 -11 26 -23 14z"/>
<path d="M6426 3183 c-13 -14 -5 -33 14 -33 11 0 20 6 20 14 0 15 -24 28 -34
19z"/>
<path d="M6505 3180 c-3 -5 -1 -10 4 -10 6 0 11 5 11 10 0 6 -2 10 -4 10 -3 0
-8 -4 -11 -10z"/>
<path d="M6366 3164 c-5 -14 -4 -15 9 -4 17 14 19 20 6 20 -5 0 -12 -7 -15
-16z"/>
<path d="M6780 3164 c0 -8 5 -12 10 -9 6 3 10 10 10 16 0 5 -4 9 -10 9 -5 0
-10 -7 -10 -16z"/>
<path d="M6912 3145 c0 -16 2 -22 5 -12 2 9 2 23 0 30 -3 6 -5 -1 -5 -18z"/>
<path d="M6288 3153 c7 -3 16 -2 19 1 4 3 -2 6 -13 5 -11 0 -14 -3 -6 -6z"/>
<path d="M6460 3123 c0 -10 4 -14 8 -8 4 6 11 13 16 18 5 4 2 7 -7 7 -10 0
-17 -8 -17 -17z"/>
<path d="M6248 3123 c7 -3 16 -2 19 1 4 3 -2 6 -13 5 -11 0 -14 -3 -6 -6z"/>
<path d="M6380 3115 c-15 -18 -47 -20 -53 -2 -4 10 -7 10 -18 0 -11 -11 -10
-13 4 -13 9 0 17 -7 17 -15 0 -8 7 -15 15 -15 9 0 18 7 21 15 4 8 12 15 19 15
17 0 28 17 16 24 -5 3 -14 -1 -21 -9z"/>
<path d="M6754 3112 c-6 -4 -23 -25 -39 -47 -17 -22 -33 -43 -38 -46 -11 -8
26 -52 47 -55 15 -2 15 0 0 25 -16 27 -16 30 7 62 13 19 30 39 38 45 15 12 1
27 -15 16z"/>
<path d="M4780 3091 c0 -11 5 -23 10 -26 6 -3 10 -18 10 -33 0 -20 3 -23 12
-14 9 9 8 21 -1 52 -12 42 -31 54 -31 21z"/>
<path d="M6220 3104 c0 -6 -11 -17 -25 -24 -14 -7 -25 -17 -25 -22 0 -14 27
-9 51 11 19 16 22 22 12 32 -8 7 -13 8 -13 3z"/>
<path d="M6801 3084 c0 -11 3 -14 6 -6 3 7 2 16 -1 19 -3 4 -6 -2 -5 -13z"/>
<path d="M6885 3080 c-3 -5 -1 -18 4 -27 9 -16 10 -14 11 10 0 28 -5 34 -15
17z"/>
<path d="M6271 3066 c-10 -12 -8 -13 8 -9 12 3 18 9 15 14 -7 12 -10 11 -23
-5z"/>
<path d="M6305 3030 c5 -16 2 -20 -14 -20 -12 0 -21 -4 -21 -9 0 -17 18 -22
32 -8 7 7 22 16 32 20 19 7 19 8 0 22 -27 20 -36 18 -29 -5z"/>
<path d="M6830 3038 c0 -18 18 -34 28 -24 3 4 -2 14 -11 23 -16 16 -17 16 -17
1z"/>
<path d="M6103 3026 c-13 -6 -23 -14 -23 -18 0 -5 -9 -8 -20 -8 -11 0 -20 -4
-20 -10 0 -15 26 -12 40 5 7 8 20 15 30 15 10 0 23 7 30 15 15 18 -2 19 -37 1z"/>
<path d="M6758 3024 c-11 -10 3 -34 19 -34 8 0 13 7 11 17 -3 18 -20 27 -30
17z"/>
<path d="M6175 2990 c-3 -5 -15 -10 -26 -10 -20 0 -26 -15 -9 -25 5 -3 18 3
28 13 11 11 26 22 33 25 10 4 9 6 -3 6 -9 1 -20 -3 -23 -9z"/>
<path d="M6651 2984 c0 -11 3 -14 6 -6 3 7 2 16 -1 19 -3 4 -6 -2 -5 -13z"/>
<path d="M4888 2957 c-2 -15 -9 -21 -20 -19 -22 3 -22 -6 -3 -32 14 -18 15
-18 25 10 6 16 15 31 20 34 4 3 2 11 -5 17 -11 10 -14 8 -17 -10z"/>
<path d="M6800 2967 c0 -10 -12 -28 -27 -41 -18 -15 -23 -25 -15 -30 7 -4 12
-1 12 8 0 9 6 16 14 16 23 0 39 27 27 47 -10 17 -10 17 -11 0z"/>
<path d="M6085 2947 c-13 -10 -15 -16 -6 -21 17 -11 41 0 41 19 0 19 -11 19
-35 2z"/>
<path d="M6228 2953 c7 -3 16 -2 19 1 4 3 -2 6 -13 5 -11 0 -14 -3 -6 -6z"/>
<path d="M6576 2911 c-28 -28 -47 -53 -44 -56 9 -9 101 81 97 94 -3 7 -26 -11
-53 -38z"/>
<path d="M4942 2914 c1 -9 9 -19 16 -22 9 -3 13 2 10 14 -1 9 -9 19 -16 22 -9
3 -13 -2 -10 -14z"/>
<path d="M5845 2911 c-30 -5 -36 -8 -22 -14 31 -12 67 -8 67 8 0 8 -1 14 -2
14 -2 -1 -21 -5 -43 -8z"/>
<path d="M5950 2905 c0 -10 -10 -15 -27 -15 -20 0 -24 -3 -14 -9 15 -10 51 -3
51 10 0 5 7 9 16 9 8 0 12 5 9 10 -10 15 -35 12 -35 -5z"/>
<path d="M6120 2910 c0 -5 9 -10 20 -10 11 0 20 5 20 10 0 6 -9 10 -20 10 -11
0 -20 -4 -20 -10z"/>
<path d="M6687 2906 c-10 -24 -9 -26 8 -26 9 0 15 -9 15 -25 0 -15 6 -25 14
-25 8 0 17 -8 20 -17 5 -12 10 -13 17 -6 12 12 3 27 -34 61 -11 9 -22 26 -26
36 -7 18 -8 18 -14 2z"/>
<path d="M5715 2880 c-3 -6 4 -10 17 -10 13 0 29 -5 35 -11 6 -6 21 -9 34 -6
22 4 21 5 -8 12 -18 4 -33 11 -33 16 0 12 -37 11 -45 -1z"/>
<path d="M4908 2874 c-3 -3 -3 -14 -1 -25 5 -16 8 -18 14 -7 16 25 6 51 -13
32z"/>
<path d="M6000 2870 c-11 -7 -7 -10 18 -10 20 0 31 4 27 10 -8 13 -26 13 -45
0z"/>
<path d="M5430 2850 c64 -17 90 -20 90 -10 0 5 -10 10 -22 10 -13 0 -41 2 -63
5 l-40 5 35 -10z"/>
<path d="M6775 2850 c-3 -5 -1 -10 4 -10 6 0 11 5 11 10 0 6 -2 10 -4 10 -3 0
-8 -4 -11 -10z"/>
<path d="M4962 2830 c-12 -13 -21 -31 -21 -39 1 -13 2 -13 6 1 2 9 15 18 27
20 18 2 22 7 16 22 -6 18 -7 18 -28 -4z"/>
<path d="M5819 2834 c-9 -11 -8 -14 7 -14 11 0 25 4 32 9 11 6 9 9 -7 14 -11
3 -25 -1 -32 -9z"/>
<path d="M6579 2831 c-14 -12 -18 -20 -11 -21 15 0 47 28 40 36 -3 2 -16 -4
-29 -15z"/>
<path d="M5048 2815 c5 -29 8 -31 15 -11 3 8 0 19 -7 25 -10 9 -12 6 -8 -14z"/>
<path d="M6470 2820 c-14 -11 -31 -20 -37 -20 -7 0 -13 -4 -13 -10 0 -17 24
-11 51 13 13 13 31 27 39 30 13 5 13 6 0 6 -8 0 -26 -8 -40 -19z"/>
<path d="M5001 2784 c0 -11 3 -14 6 -6 3 7 2 16 -1 19 -3 4 -6 -2 -5 -13z"/>
<path d="M5095 2790 c3 -5 10 -10 16 -10 5 0 9 5 9 10 0 6 -7 10 -16 10 -8 0
-12 -4 -9 -10z"/>
<path d="M6507 2783 c-13 -13 -7 -21 13 -16 11 3 20 9 20 14 0 10 -24 12 -33
2z"/>
<path d="M5125 2759 c-12 -19 5 -23 22 -6 16 16 16 17 1 17 -9 0 -20 -5 -23
-11z"/>
<path d="M6380 2755 c-10 -12 -10 -15 3 -15 8 0 20 7 27 15 10 12 10 15 -3 15
-8 0 -20 -7 -27 -15z"/>
<path d="M4960 2756 c0 -2 7 -9 15 -16 12 -10 15 -10 15 4 0 9 -7 16 -15 16
-8 0 -15 -2 -15 -4z"/>
<path d="M5020 2750 c0 -5 7 -10 16 -10 8 0 12 5 9 10 -3 6 -10 10 -16 10 -5
0 -9 -4 -9 -10z"/>
<path d="M6686 2744 c-9 -8 -16 -22 -16 -30 0 -10 8 -7 25 10 14 14 25 28 25
31 0 10 -19 5 -34 -11z"/>
<path d="M6636 2735 c-3 -9 0 -15 9 -15 16 0 20 16 6 24 -5 3 -11 -1 -15 -9z"/>
<path d="M6520 2730 c-8 -5 -12 -10 -10 -12 31 -20 74 -37 81 -32 16 9 10 24
-10 24 -10 0 -21 7 -25 15 -6 17 -15 19 -36 5z"/>
<path d="M5000 2715 c0 -8 4 -15 10 -15 5 0 7 7 4 15 -4 8 -8 15 -10 15 -2 0
-4 -7 -4 -15z"/>
<path d="M5070 2720 c0 -5 6 -10 14 -10 8 0 18 5 21 10 3 6 -3 10 -14 10 -12
0 -21 -4 -21 -10z"/>
<path d="M5150 2710 c0 -23 10 -26 28 -8 18 18 15 28 -8 28 -13 0 -20 -7 -20
-20z"/>
<path d="M6280 2681 c0 -5 9 -11 20 -14 13 -3 20 0 20 9 0 8 -9 14 -20 14 -11
0 -20 -4 -20 -9z"/>
<path d="M5217 2673 c-14 -13 -6 -23 18 -23 28 0 34 15 9 24 -19 7 -19 7 -27
-1z"/>
<path d="M5308 2673 c7 -3 16 -2 19 1 4 3 -2 6 -13 5 -11 0 -14 -3 -6 -6z"/>
<path d="M6195 2670 c-3 -5 1 -10 10 -10 9 0 13 5 10 10 -3 6 -8 10 -10 10 -2
0 -7 -4 -10 -10z"/>
<path d="M6399 2659 c-21 -21 -21 -23 -3 -36 24 -17 38 -12 42 16 6 37 -13 46
-39 20z"/>
<path d="M6627 2673 c-12 -12 -7 -22 8 -17 8 4 15 10 15 15 0 11 -14 12 -23 2z"/>
<path d="M5368 2648 c9 -9 15 -9 24 0 9 9 7 12 -12 12 -19 0 -21 -3 -12 -12z"/>
<path d="M6500 2645 c0 -8 9 -15 20 -15 11 0 20 7 20 15 0 8 -9 15 -20 15 -11
0 -20 -7 -20 -15z"/>
<path d="M5082 2638 c6 -18 28 -21 28 -4 0 9 -7 16 -16 16 -9 0 -14 -5 -12
-12z"/>
<path d="M5177 2643 c-12 -11 -7 -28 11 -39 16 -11 18 -9 14 17 -4 29 -12 36
-25 22z"/>
<path d="M6125 2640 c-4 -6 5 -10 20 -10 15 0 24 4 20 10 -3 6 -12 10 -20 10
-8 0 -17 -4 -20 -10z"/>
<path d="M6265 2640 c-3 -5 3 -10 14 -10 12 0 21 5 21 10 0 6 -6 10 -14 10 -8
0 -18 -4 -21 -10z"/>
<path d="M6550 2605 c-24 -25 -50 -45 -57 -45 -7 0 -13 -4 -13 -10 0 -15 18
-12 38 8 10 9 35 30 55 46 35 27 47 46 29 46 -4 0 -28 -20 -52 -45z"/>
<path d="M6068 2633 c7 -3 16 -2 19 1 4 3 -2 6 -13 5 -11 0 -14 -3 -6 -6z"/>
<path d="M5338 2613 c7 -3 16 -2 19 1 4 3 -2 6 -13 5 -11 0 -14 -3 -6 -6z"/>
<path d="M5945 2610 c-4 -6 6 -10 24 -10 16 0 33 5 36 10 4 6 -6 10 -24 10
-16 0 -33 -4 -36 -10z"/>
<path d="M6211 2617 c2 -1 12 -9 22 -16 14 -12 17 -11 17 3 0 10 -8 16 -22 16
-12 0 -19 -1 -17 -3z"/>
<path d="M5670 2581 c14 -4 61 -5 105 -1 l80 7 -105 1 c-61 0 -94 -3 -80 -7z"/>
<path d="M6300 2569 c0 -5 5 -7 10 -4 6 3 10 8 10 11 0 2 -4 4 -10 4 -5 0 -10
-5 -10 -11z"/>
<path d="M5285 2550 c-3 -5 3 -10 15 -10 12 0 18 5 15 10 -3 6 -10 10 -15 10
-5 0 -12 -4 -15 -10z"/>
<path d="M6375 2550 c-4 -6 5 -10 20 -10 15 0 24 4 20 10 -3 6 -12 10 -20 10
-8 0 -17 -4 -20 -10z"/>
<path d="M5206 2536 c3 -9 16 -16 28 -15 14 0 16 2 6 6 -8 3 -21 10 -28 16 -9
7 -11 6 -6 -7z"/>
<path d="M6307 2523 c-14 -13 -6 -23 17 -23 13 0 29 7 36 15 11 13 8 15 -17
15 -16 0 -33 -3 -36 -7z"/>
<path d="M5380 2495 c0 -8 5 -15 10 -15 6 0 10 7 10 15 0 8 -4 15 -10 15 -5 0
-10 -7 -10 -15z"/>
<path d="M6396 2495 c-16 -12 -17 -15 -4 -15 8 0 21 7 28 15 16 19 1 19 -24 0z"/>
<path d="M5286 2493 c-3 -3 -3 -10 0 -14 7 -12 34 -11 34 0 0 11 -26 22 -34
14z"/>
<path d="M6328 2463 c-26 -4 -41 -33 -18 -33 6 0 10 5 10 10 0 6 9 10 20 10
11 0 20 5 20 10 0 6 -1 9 -2 9 -2 -1 -15 -4 -30 -6z"/>
<path d="M5475 2400 c-3 -5 3 -10 15 -10 12 0 18 5 15 10 -3 6 -10 10 -15 10
-5 0 -12 -4 -15 -10z"/>
<path d="M6198 2393 c7 -3 16 -2 19 1 4 3 -2 6 -13 5 -11 0 -14 -3 -6 -6z"/>
<path d="M5600 2371 c0 -6 9 -9 19 -8 11 0 17 5 15 9 -7 11 -34 10 -34 -1z"/>
<path d="M6025 2370 c-4 -6 7 -10 25 -10 18 0 29 4 25 10 -3 6 -15 10 -25 10
-10 0 -22 -4 -25 -10z"/>
<path d="M6120 2370 c0 -5 7 -10 15 -10 8 0 15 5 15 10 0 6 -7 10 -15 10 -8 0
-15 -4 -15 -10z"/>
<path d="M5673 2343 c9 -2 25 -2 35 0 9 3 1 5 -18 5 -19 0 -27 -2 -17 -5z"/>
<path d="M565 1214 c-11 -2 -51 -12 -88 -20 -227 -52 -411 -246 -453 -477 -3
-20 -10 -40 -15 -43 -12 -7 -12 -141 0 -149 6 -3 13 -27 16 -53 10 -68 27
-122 64 -202 9 -18 48 -66 86 -105 87 -87 138 -114 300 -155 50 -12 208 -13
249 -1 17 5 51 15 76 21 25 7 53 16 62 21 10 5 23 9 29 9 19 0 145 87 188 130
46 46 111 142 111 164 0 7 3 16 7 20 14 14 32 82 44 167 13 92 4 221 -22 299
-60 179 -184 295 -378 354 -54 16 -237 30 -276 20z m221 -224 c128 -58 204
-201 204 -383 0 -69 -13 -147 -31 -179 -5 -10 -9 -22 -9 -28 0 -5 -16 -32 -35
-59 -36 -49 -98 -96 -165 -122 -54 -21 -203 -17 -269 6 -97 35 -172 130 -200
255 -14 60 -10 223 6 280 38 134 143 231 273 251 67 10 180 0 226 -21z"/>
<path d="M1855 1204 c-31 -4 -88 -19 -140 -36 -135 -44 -258 -153 -319 -281
-44 -94 -56 -144 -63 -262 -10 -174 37 -335 128 -438 38 -44 155 -127 177
-127 7 0 20 -4 30 -9 68 -36 234 -54 366 -40 55 6 109 14 118 20 10 5 27 9 39
9 11 0 29 5 40 10 21 12 25 56 13 145 l-7 47 -36 -5 c-20 -3 -61 -11 -91 -17
-32 -7 -100 -10 -160 -8 -87 4 -115 9 -161 31 -63 29 -128 90 -157 145 -46 89
-57 275 -22 377 70 202 215 278 470 245 153 -20 144 -21 152 30 14 92 10 138
-13 151 -21 11 -306 22 -364 13z"/>
<path d="M2402 1188 c-17 -17 -17 -1139 0 -1156 9 -9 102 -12 355 -12 l343 0
0 90 0 90 -223 0 c-160 0 -226 3 -235 12 -8 8 -12 59 -12 165 0 84 1 154 3
155 1 1 101 4 222 8 l220 5 3 83 3 82 -215 0 c-203 0 -216 1 -226 19 -15 28
-13 264 2 279 9 9 75 12 234 12 193 0 223 2 228 16 8 20 8 93 0 133 l-6 31
-342 0 c-253 0 -345 -3 -354 -12z"/>
<path d="M3652 1187 c-6 -6 -20 -37 -31 -67 -12 -30 -26 -65 -31 -77 -6 -13
-14 -33 -19 -45 -5 -13 -20 -52 -35 -88 -14 -36 -26 -68 -26 -73 0 -4 -8 -26
-19 -50 -10 -23 -51 -125 -90 -227 -40 -102 -76 -194 -80 -205 -5 -11 -25 -63
-46 -115 -44 -113 -54 -139 -66 -162 -5 -10 -9 -27 -9 -38 0 -19 6 -20 106
-20 102 0 134 9 134 37 0 15 55 149 71 173 l15 24 257 0 c292 1 269 8 302 -93
10 -31 22 -60 27 -66 4 -5 8 -16 8 -25 0 -40 31 -50 153 -50 95 0 117 3 117
14 0 12 -111 307 -150 401 -5 11 -25 63 -45 115 -21 52 -41 104 -45 115 -4 11
-20 52 -35 90 -15 39 -31 79 -35 90 -5 11 -25 63 -45 115 -49 126 -56 142 -66
162 -5 10 -9 24 -9 32 0 8 -7 22 -16 30 -20 21 -275 24 -292 3z m163 -310 c9
-28 20 -61 25 -72 35 -84 129 -337 132 -356 l3 -24 -194 -3 -194 -2 6 37 c4
21 16 57 27 80 11 23 20 48 20 56 0 7 4 17 8 22 5 6 15 26 22 45 7 19 19 49
26 65 7 17 25 66 39 110 41 122 53 129 80 42z"/>
<path d="M4492 1188 c-9 -9 -12 -150 -12 -574 0 -309 3 -569 6 -578 5 -13 24
-16 104 -16 54 0 105 3 114 6 14 5 16 52 16 426 0 311 3 419 11 416 7 -2 24
-26 39 -53 15 -28 36 -67 48 -88 36 -61 433 -660 455 -684 20 -22 27 -23 172
-23 l153 0 6 31 c9 47 7 1122 -2 1137 -6 9 -36 12 -113 10 l-104 -3 -3 -423
c-2 -453 -3 -460 -49 -374 -12 23 -66 109 -120 192 -54 84 -102 159 -108 168
-5 9 -18 25 -27 36 -10 11 -18 22 -18 25 0 7 -202 316 -231 354 l-21 27 -152
0 c-105 0 -156 -4 -164 -12z"/>
<path d="M6243 1188 c-12 -19 -16 -400 -8 -806 l7 -363 262 4 c143 2 281 9
306 15 25 6 59 14 75 18 48 11 158 89 191 136 43 60 58 111 58 198 -1 109 -38
169 -139 224 -70 39 -71 41 -28 66 90 54 140 123 150 210 16 133 -60 239 -199
279 -21 6 -53 16 -71 21 -52 15 -594 13 -604 -2z m544 -171 c55 -29 73 -62 73
-132 0 -78 -25 -119 -94 -153 -43 -22 -64 -25 -165 -26 l-116 -1 -3 155 c-1
85 0 160 3 168 8 22 258 12 302 -11z m-72 -471 c84 -18 120 -40 150 -89 31
-53 32 -102 4 -162 -23 -49 -28 -54 -83 -85 -44 -24 -179 -38 -259 -26 l-47 7
0 179 c0 133 3 180 13 183 24 10 163 6 222 -7z"/>
<path d="M7579 1173 c-9 -16 -47 -107 -84 -203 -37 -96 -73 -188 -80 -205 -8
-16 -23 -57 -35 -90 -12 -33 -25 -69 -30 -80 -5 -11 -25 -63 -45 -115 -21 -52
-41 -104 -45 -115 -82 -200 -120 -302 -120 -322 0 -24 0 -24 107 -21 118 3
110 -1 141 78 54 141 58 147 110 153 37 4 325 3 460 -2 15 -1 27 -11 36 -33
22 -50 42 -99 56 -138 21 -56 32 -60 157 -60 111 0 113 0 113 23 0 12 -30 99
-66 192 -37 94 -98 251 -136 350 -39 99 -79 199 -89 222 -11 24 -19 47 -19 53
0 6 -5 18 -10 28 -6 9 -31 71 -56 137 -25 66 -53 132 -62 148 l-16 27 -136 0
-136 0 -15 -27z m176 -309 c11 -36 23 -68 27 -70 5 -3 8 -14 8 -25 0 -10 4
-27 9 -37 34 -67 120 -295 115 -304 -3 -4 -93 -8 -200 -8 -220 0 -209 -5 -173
83 12 29 25 62 30 75 5 12 14 34 20 50 7 15 15 36 19 47 4 11 13 34 20 50 28
69 60 161 60 175 0 21 19 40 34 34 6 -2 20 -34 31 -70z"/>
<path d="M8431 1186 c-8 -9 -10 -172 -9 -587 l3 -574 104 -3 c88 -2 105 0 116
14 10 14 12 108 8 426 -3 341 -1 408 10 408 8 0 22 -19 33 -42 10 -24 21 -45
25 -48 3 -3 14 -21 24 -40 28 -55 455 -694 473 -708 23 -17 311 -17 316 0 8
24 14 992 7 1078 l-6 85 -107 3 -106 3 -8 -33 c-4 -18 -5 -208 -3 -422 3 -255
1 -390 -6 -393 -6 -2 -38 44 -72 101 -106 178 -460 715 -483 733 -23 18 -304
18 -319 -1z"/>
<path d="M9757 1193 c-4 -3 -7 -263 -7 -578 0 -431 3 -574 12 -583 8 -8 48
-12 114 -12 84 0 103 3 108 16 3 9 6 130 6 269 0 160 4 256 10 260 11 7 48
-27 95 -89 17 -21 35 -44 40 -50 6 -6 36 -42 67 -81 30 -38 66 -82 79 -97 40
-45 93 -110 109 -132 7 -12 30 -38 50 -59 l35 -38 148 3 148 3 -33 45 c-18 25
-51 65 -74 90 -23 25 -55 61 -70 80 -16 19 -36 42 -44 50 -8 8 -53 60 -100
115 -108 127 -113 134 -145 170 -50 57 -50 61 -2 113 24 26 59 65 78 88 31 37
145 166 238 269 75 83 111 129 111 142 0 10 -29 13 -130 13 -148 0 -129 9
-231 -111 -26 -30 -57 -66 -70 -80 -13 -14 -44 -50 -69 -79 -25 -30 -61 -73
-81 -95 -20 -22 -47 -53 -60 -69 -50 -60 -79 -87 -89 -81 -6 4 -10 95 -10 245
0 131 -3 245 -6 254 -5 13 -25 16 -113 16 -59 0 -111 -3 -114 -7z"/>
</g>
</svg>
