<svg width="65" height="79" viewBox="0 0 65 79" fill="none" xmlns="http://www.w3.org/2000/svg">
<path d="M0.336754 70.2073C0.00716525 71.2119 -0.082158 72.2813 0.0761364 73.3277C0.234431 74.3741 0.635816 75.3674 1.24725 76.2259C1.85869 77.0844 2.6627 77.7836 3.5931 78.2659C4.5235 78.7482 5.55368 78.9998 6.59886 79H58.3883C59.4333 78.9997 60.4633 78.7481 61.3936 78.2659C62.3238 77.7837 63.1277 77.0847 63.7392 76.2263C64.3506 75.368 64.752 74.3748 64.9104 73.3286C65.0688 72.2824 64.9797 71.2131 64.6504 70.2086L59.7754 55.3922C59.4327 54.3797 59.0156 53.3947 58.5274 52.4455L58.8823 51.0788C59.0352 50.4895 59.0526 49.8726 58.9332 49.2755C58.8137 48.6783 58.5606 48.1169 58.1933 47.6344C57.8261 47.1519 57.3544 46.7612 56.8146 46.4923C56.2748 46.2234 55.6813 46.0835 55.0798 46.0833H53.6329C49.8028 42.6904 44.8879 40.8192 39.7996 40.8167H38.9936V39.8634C41.3378 38.6196 43.3269 36.786 44.7695 34.5388C45.5144 32.8903 45.9882 31.1295 46.1722 29.3261C47.0988 29.0604 47.9146 28.4959 48.4959 27.7182C49.0773 26.9405 49.3924 25.9921 49.3936 25.0167V17.1167C49.3936 12.577 47.613 8.22335 44.4437 5.01336C41.2743 1.80336 36.9757 0 32.4936 0C28.0114 0 23.7128 1.80336 20.5435 5.01336C17.3741 8.22335 15.5936 12.577 15.5936 17.1167V25.0167C15.5947 25.9921 15.9099 26.9405 16.4912 27.7182C17.0725 28.4959 17.8883 29.0604 18.815 29.3261C18.9988 31.1297 19.4731 32.8905 20.219 34.5388C21.661 36.786 23.6496 38.6196 25.9936 39.8634V40.8167H25.1876C20.0992 40.8192 15.1843 42.6904 11.3543 46.0833H9.90736C9.3057 46.0833 8.71205 46.223 8.1721 46.4918C7.63214 46.7606 7.16029 47.1514 6.79286 47.6339C6.42543 48.1164 6.17222 48.6779 6.05271 49.2752C5.93321 49.8724 5.9506 50.4894 6.10355 51.0788L6.45975 52.4468C5.97054 53.3968 5.55249 54.3827 5.20915 55.3961L0.336754 70.2073ZM11.6936 76.3667V73.7333H53.2936V76.3667H11.6936ZM62.1856 71.0434C62.384 71.652 62.437 72.2997 62.3403 72.9331C62.2436 73.5666 62 74.1678 61.6293 74.6873C61.2587 75.2069 60.7717 75.63 60.2083 75.922C59.6449 76.2139 59.0211 76.3663 58.3883 76.3667H55.8936V73.7333C55.8911 73.1027 55.6652 72.4939 55.257 72.0176C54.8488 71.5414 54.2854 71.2293 53.6693 71.1382L57.4393 56.6233L62.1856 71.0434ZM49.2259 46.0833H37.6559C38.2468 45.3081 38.6578 44.4081 38.8584 43.45H39.7957C43.1159 43.4514 46.3741 44.3612 49.2259 46.0833ZM32.4936 2.63333C36.2848 2.63786 39.9194 4.16524 42.6002 6.88041C45.281 9.59558 46.7891 13.2768 46.7936 17.1167V20.935C46.5894 20.8393 46.3782 20.76 46.1618 20.698C45.9285 19.4653 45.3094 18.3415 44.3962 17.493C43.4831 16.6445 42.3244 16.1164 41.0918 15.987C38.5046 15.638 36.0439 14.6426 33.9314 13.0903C33.5096 12.7966 33.0099 12.6394 32.4981 12.6394C31.9863 12.6394 31.4866 12.7966 31.0649 13.0903C28.973 14.6546 26.5212 15.6517 23.9422 15.987C22.699 16.1024 21.527 16.6251 20.6036 17.476C19.6803 18.3268 19.056 19.4594 18.8254 20.702C18.6102 20.7636 18.4003 20.8424 18.1975 20.9376V17.1167C18.2019 13.2775 19.7094 9.59686 22.3894 6.8818C25.0693 4.16674 28.703 2.63891 32.4936 2.63333ZM22.5382 33.3485C21.8349 31.6867 21.4202 29.9143 21.3123 28.1095C21.2952 27.7721 21.1508 27.4542 20.9088 27.2216C20.6668 26.989 20.3459 26.8596 20.0123 26.86C19.5296 26.86 19.0666 26.6658 18.7253 26.3201C18.384 25.9744 18.1923 25.5056 18.1923 25.0167C18.1923 24.5278 18.384 24.0589 18.7253 23.7132C19.0666 23.3675 19.5296 23.1733 20.0123 23.1733C20.357 23.1733 20.6877 23.0346 20.9315 22.7877C21.1753 22.5408 21.3123 22.2059 21.3123 21.8567C21.3095 21.0538 21.6001 20.2784 22.1281 19.6796C22.6562 19.0809 23.3843 18.7012 24.1723 18.6137C27.1679 18.2354 30.0165 17.0807 32.4429 15.2615C34.9215 17.082 37.8152 18.2367 40.8539 18.6177C41.6368 18.7071 42.359 19.0881 42.8801 19.6867C43.4012 20.2853 43.684 21.0587 43.6736 21.8567C43.6736 22.2059 43.8105 22.5408 44.0543 22.7877C44.2981 23.0346 44.6288 23.1733 44.9736 23.1733C45.4562 23.1733 45.9192 23.3675 46.2605 23.7132C46.6018 24.0589 46.7936 24.5278 46.7936 25.0167C46.7936 25.5056 46.6018 25.9744 46.2605 26.3201C45.9192 26.6658 45.4562 26.86 44.9736 26.86C44.64 26.8596 44.319 26.989 44.077 27.2216C43.835 27.4542 43.6906 27.7721 43.6736 28.1095C43.5657 29.9142 43.1514 31.6865 42.449 33.3485C41.1841 35.8778 35.3211 39.5 32.4936 39.5C29.6661 39.5 23.8031 35.8778 22.5382 33.3485ZM32.4936 42.1333C33.8411 42.0624 35.1638 41.7373 36.3936 41.1748V42.1333C36.3936 43.1809 35.9827 44.1856 35.2513 44.9264C34.5199 45.6672 33.5279 46.0833 32.4936 46.0833C31.4592 46.0833 30.4672 45.6672 29.7358 44.9264C29.0044 44.1856 28.5936 43.1809 28.5936 42.1333V41.1748C29.8233 41.7373 31.146 42.0624 32.4936 42.1333ZM25.1876 43.45H26.1236C26.3241 44.4081 26.7351 45.3081 27.3261 46.0833H15.7561C18.6082 44.361 21.8669 43.4511 25.1876 43.45ZM8.85176 49.2433C8.97589 49.0793 9.1357 48.9464 9.31878 48.855C9.50186 48.7637 9.70327 48.7164 9.90736 48.7167H55.0798C55.2834 48.7166 55.4844 48.7638 55.6673 48.8547C55.8501 48.9456 56.0099 49.0779 56.1343 49.2412C56.2588 49.4045 56.3445 49.5945 56.3851 49.7967C56.4256 49.9988 56.4198 50.2077 56.3681 50.4073L50.9913 71.1H13.9959L8.61905 50.4073C8.56695 50.2082 8.56083 49.9996 8.60119 49.7978C8.64154 49.5959 8.72729 49.4062 8.85176 49.2433ZM11.3218 71.1395C10.7051 71.2297 10.141 71.5412 9.73202 72.0173C9.32307 72.4934 9.0965 73.1023 9.09355 73.7333V76.3667H6.59886C5.96584 76.3664 5.34193 76.2139 4.77838 75.9219C4.21483 75.6299 3.72771 75.2067 3.35706 74.687C2.98641 74.1672 2.74279 73.5659 2.64622 72.9322C2.54965 72.2986 2.60289 71.6508 2.80155 71.0421L7.54525 56.6233L11.3218 71.1395Z" fill="#00C6E0"/>
<path d="M32.4941 67.15C36.0782 67.15 38.9941 64.7879 38.9941 61.8834C38.9941 58.9788 36.0782 56.6167 32.4941 56.6167C28.91 56.6167 25.9941 58.9788 25.9941 61.8834C25.9941 64.7879 28.91 67.15 32.4941 67.15ZM32.4941 59.25C34.6079 59.25 36.3941 60.4561 36.3941 61.8834C36.3941 63.3106 34.6079 64.5167 32.4941 64.5167C30.3803 64.5167 28.5941 63.3106 28.5941 61.8834C28.5941 60.4561 30.3803 59.25 32.4941 59.25Z" fill="#00C6E0"/>
</svg>
