<svg width="76" height="76" viewBox="0 0 76 76" fill="none" xmlns="http://www.w3.org/2000/svg">
<path d="M37.9966 10.3602C34.1844 10.3602 31.0841 13.4606 31.0841 17.2728C31.0841 21.0849 34.1844 24.1851 37.9966 24.1851C41.8088 24.1851 44.909 21.0848 44.909 17.2728C44.909 13.4607 41.8087 10.3602 37.9966 10.3602ZM37.9966 20.7306C36.0905 20.7306 34.5387 19.1788 34.5387 17.2728C34.5387 15.3667 36.0905 13.8149 37.9966 13.8149C39.9027 13.8149 41.4545 15.3667 41.4545 17.2728C41.4545 19.1788 39.9027 20.7306 37.9966 20.7306Z" fill="#02CAE3"/>
<path d="M74.2727 31.0908C75.2274 31.0908 76 30.323 76 29.3684V22.46C76 21.8512 75.6795 21.2862 75.1549 20.9758L41.3667 0.910182C41.3515 0.899981 41.3363 0.89156 41.3212 0.88314C39.2211 -0.280663 36.8529 -0.315964 34.6313 0.906782L0.845121 20.9758C0.320463 21.286 0 21.8512 0 22.46V29.3684C0 30.323 0.772576 31.0908 1.72732 31.0908H6.90913V62.1832C3.09856 62.1832 0 65.2814 0 69.0915V74.2728C0 75.2274 0.772576 76 1.72732 76H74.2727C75.2274 76 76 75.2276 76 74.2728V69.0915C76 65.2814 72.9014 62.1832 69.0909 62.1832V31.0908H74.2727ZM72.5454 69.0908V72.5453H3.45449V69.0908C3.45449 67.1865 5.00466 65.6364 6.90897 65.6364H8.6363H67.3635H69.0909C70.9952 65.6362 72.5454 67.1864 72.5454 69.0908ZM10.3636 62.1817V31.0908H17.2728V62.1817H10.3636ZM20.7272 62.1817V31.0908H31.0909V62.1817H20.7272ZM34.5453 62.1817V31.0908H41.4545V62.1817H34.5453ZM44.909 62.1817V31.0908H55.2726V62.1817H44.909ZM58.7272 62.1817V31.0908H65.6364V62.1817H58.7272ZM3.45449 27.6363V23.4379L36.3452 3.89814C37.4214 3.30612 38.565 3.30774 39.6277 3.88632L72.5454 23.4379V27.6363H3.45449Z" fill="#02CAE3"/>
</svg>
