<svg width="74" height="75" viewBox="0 0 74 75" fill="none" xmlns="http://www.w3.org/2000/svg">
<path d="M36.7629 75C26.9432 75 17.7111 71.0994 10.7675 64.0166C3.82392 56.9338 0 47.5166 0 37.5C0 27.4834 3.82406 18.0664 10.7675 10.9834C17.711 3.90044 26.9432 0 36.7629 0C46.5826 0 55.8147 3.90059 62.7583 10.9834C69.7019 18.0662 73.5258 27.4834 73.5258 37.5C73.5258 47.5166 69.7017 56.9336 62.7583 64.0166C55.8148 71.0996 46.5826 75 36.7629 75ZM36.7629 4.6875C19.0257 4.6875 4.59536 19.4071 4.59536 37.5C4.59536 55.5929 19.0257 70.3125 36.7629 70.3125C54.5001 70.3125 68.9304 55.5929 68.9304 37.5C68.9304 19.4071 54.5001 4.6875 36.7629 4.6875Z" fill="#02CAE3"/>
<path d="M36.7629 35.1562C33.5956 35.1562 31.0187 32.5277 31.0187 29.2969C31.0187 26.066 33.5956 23.4375 36.7629 23.4375C39.9303 23.4375 42.5071 26.066 42.5071 29.2969C42.5071 30.5912 43.5358 31.6406 44.8048 31.6406C46.0738 31.6406 47.1025 30.5912 47.1025 29.2969C47.1025 24.287 43.6591 20.0848 39.0606 19.0157V16.4062C39.0606 15.1119 38.0319 14.0625 36.7629 14.0625C35.4939 14.0625 34.4652 15.1119 34.4652 16.4062V19.0157C29.8667 20.0848 26.4233 24.287 26.4233 29.2969C26.4233 35.1125 31.0616 39.8438 36.7629 39.8438C39.9303 39.8438 42.5071 42.4723 42.5071 45.7031C42.5071 48.934 39.9303 51.5625 36.7629 51.5625C33.5956 51.5625 31.0187 48.934 31.0187 45.7031C31.0187 44.4088 29.9901 43.3594 28.721 43.3594C27.452 43.3594 26.4233 44.4088 26.4233 45.7031C26.4233 50.713 29.8667 54.9152 34.4652 55.9843V58.5938C34.4652 59.8881 35.4939 60.9375 36.7629 60.9375C38.0319 60.9375 39.0606 59.8881 39.0606 58.5938V55.9843C43.6591 54.9152 47.1025 50.713 47.1025 45.7031C47.1025 39.8875 42.4642 35.1562 36.7629 35.1562Z" fill="#02CAE3"/>
</svg>
