<svg width="75" height="75" viewBox="0 0 75 75" fill="none" xmlns="http://www.w3.org/2000/svg">
<path d="M54.6052 43.421C53.5149 43.421 52.6315 42.5376 52.6315 41.4473V3.94737H22.3684V41.4473C22.3684 42.5376 21.485 43.421 20.3947 43.421C19.3044 43.421 18.421 42.5376 18.421 41.4473V1.97368C18.421 0.883407 19.3044 0 20.3947 0H54.6052C55.6955 0 56.5789 0.883407 56.5789 1.97368V41.4473C56.5789 42.5376 55.6955 43.421 54.6052 43.421Z" fill="#02CAE3"/>
<path d="M1.97368 47.3684C0.883407 47.3684 0 46.485 0 45.3948V26.7418C0 25.8995 0.534539 25.1504 1.33056 24.876L19.7516 18.529C20.7853 18.1725 21.9058 18.7218 22.2605 19.7517C22.6158 20.7822 22.0684 21.9059 21.0378 22.2605L3.94737 28.1495V45.3948C3.94737 46.4851 3.06396 47.3684 1.97368 47.3684Z" fill="#02CAE3"/>
<path d="M73.0263 47.3683C71.936 47.3683 71.0526 46.4849 71.0526 45.3947V28.1493L53.9622 22.2604C52.9316 21.9058 52.3842 20.7821 52.7395 19.7515C53.0942 18.7217 54.2153 18.1717 55.2484 18.5289L73.6694 24.8759C74.4655 25.1503 75 25.8994 75 26.7417V45.3946C75 46.4849 74.1166 47.3683 73.0263 47.3683Z" fill="#02CAE3"/>
<path d="M28.2895 24.9999C27.1992 24.9999 26.3158 24.1165 26.3158 23.0263V19.0789C26.3158 17.9886 27.1992 17.1052 28.2895 17.1052C29.3797 17.1052 30.2631 17.9886 30.2631 19.0789V23.0263C30.2631 24.1165 29.3797 24.9999 28.2895 24.9999Z" fill="#02CAE3"/>
<path d="M11.1842 38.1579C10.0939 38.1579 9.21053 37.2745 9.21053 36.1842V32.2368C9.21053 31.1466 10.0939 30.2632 11.1842 30.2632C12.2745 30.2632 13.1579 31.1466 13.1579 32.2368V36.1842C13.1579 37.2745 12.2745 38.1579 11.1842 38.1579Z" fill="#02CAE3"/>
<path d="M63.8157 38.1579C62.7255 38.1579 61.8421 37.2745 61.8421 36.1842V32.2368C61.8421 31.1466 62.7255 30.2632 63.8157 30.2632C64.906 30.2632 65.7894 31.1466 65.7894 32.2368V36.1842C65.7894 37.2745 64.906 38.1579 63.8157 38.1579Z" fill="#02CAE3"/>
<path d="M37.5 24.9999C36.4097 24.9999 35.5263 24.1165 35.5263 23.0263V19.0789C35.5263 17.9886 36.4097 17.1052 37.5 17.1052C38.5902 17.1052 39.4736 17.9886 39.4736 19.0789V23.0263C39.4736 24.1165 38.5902 24.9999 37.5 24.9999Z" fill="#02CAE3"/>
<path d="M46.7105 24.9999C45.6202 24.9999 44.7368 24.1165 44.7368 23.0263V19.0789C44.7368 17.9886 45.6202 17.1052 46.7105 17.1052C47.8008 17.1052 48.6842 17.9886 48.6842 19.0789V23.0263C48.6842 24.1165 47.8008 24.9999 46.7105 24.9999Z" fill="#02CAE3"/>
<path d="M28.2895 14.4737C27.1992 14.4737 26.3158 13.5903 26.3158 12.5V8.55266C26.3158 7.46238 27.1992 6.57897 28.2895 6.57897C29.3797 6.57897 30.2631 7.46238 30.2631 8.55266V12.5C30.2631 13.5903 29.3797 14.4737 28.2895 14.4737Z" fill="#02CAE3"/>
<path d="M37.5 14.4737C36.4097 14.4737 35.5263 13.5903 35.5263 12.5V8.55266C35.5263 7.46238 36.4097 6.57897 37.5 6.57897C38.5902 6.57897 39.4736 7.46238 39.4736 8.55266V12.5C39.4736 13.5903 38.5902 14.4737 37.5 14.4737Z" fill="#02CAE3"/>
<path d="M46.7105 14.4737C45.6202 14.4737 44.7368 13.5903 44.7368 12.5V8.55266C44.7368 7.46238 45.6202 6.57897 46.7105 6.57897C47.8008 6.57897 48.6842 7.46238 48.6842 8.55266V12.5C48.6842 13.5903 47.8008 14.4737 46.7105 14.4737Z" fill="#02CAE3"/>
<path d="M28.2895 35.5263C27.1992 35.5263 26.3158 34.6429 26.3158 33.5526V29.6053C26.3158 28.515 27.1992 27.6316 28.2895 27.6316C29.3797 27.6316 30.2631 28.515 30.2631 29.6053V33.5526C30.2631 34.6429 29.3797 35.5263 28.2895 35.5263Z" fill="#02CAE3"/>
<path d="M37.5 35.5263C36.4097 35.5263 35.5263 34.6429 35.5263 33.5526V29.6053C35.5263 28.515 36.4097 27.6316 37.5 27.6316C38.5902 27.6316 39.4736 28.515 39.4736 29.6053V33.5526C39.4736 34.6429 38.5902 35.5263 37.5 35.5263Z" fill="#02CAE3"/>
<path d="M46.7105 35.5263C45.6202 35.5263 44.7368 34.6429 44.7368 33.5526V29.6053C44.7368 28.515 45.6202 27.6316 46.7105 27.6316C47.8008 27.6316 48.6842 28.515 48.6842 29.6053V33.5526C48.6842 34.6429 47.8008 35.5263 46.7105 35.5263Z" fill="#02CAE3"/>
<path d="M13.1579 63.8158C8.14529 63.8158 4.06686 59.7374 4.06686 54.7248C4.06686 49.7122 8.14529 45.6338 13.1579 45.6338C18.1705 45.6338 22.2489 49.7122 22.2489 54.7248C22.2489 59.7374 18.1705 63.8158 13.1579 63.8158ZM13.1579 49.5811C10.3214 49.5811 8.01423 51.8882 8.01423 54.7248C8.01423 57.5613 10.3214 59.8684 13.1579 59.8684C15.9944 59.8684 18.3015 57.5613 18.3015 54.7248C18.3015 51.8882 15.9944 49.5811 13.1579 49.5811Z" fill="#02CAE3"/>
<path d="M15.1316 74.9999H1.97368C0.883407 74.9999 0 74.1165 0 73.0262C0 65.7708 5.90242 59.8684 13.1579 59.8684C18.5707 59.8684 23.5049 63.26 25.4356 68.3086C25.8249 69.3262 25.3154 70.4673 24.2971 70.8566C23.2775 71.2466 22.139 70.7365 21.7491 69.7181C20.3986 66.1877 16.9459 63.8157 13.1579 63.8157C8.7563 63.8157 5.06592 66.9189 4.16002 71.0526H15.1316C16.2218 71.0526 17.1052 71.936 17.1052 73.0262C17.1052 74.1165 16.2218 74.9999 15.1316 74.9999Z" fill="#02CAE3"/>
<path d="M61.842 63.8158C56.8295 63.8158 52.751 59.7374 52.751 54.7248C52.751 49.7122 56.8295 45.6338 61.842 45.6338C66.8546 45.6338 70.9331 49.7122 70.9331 54.7248C70.9331 59.7374 66.8546 63.8158 61.842 63.8158ZM61.842 49.5811C59.0055 49.5811 56.6984 51.8882 56.6984 54.7248C56.6984 57.5613 59.0055 59.8684 61.842 59.8684C64.6786 59.8684 66.9857 57.5613 66.9857 54.7248C66.9857 51.8882 64.6786 49.5811 61.842 49.5811Z" fill="#02CAE3"/>
<path d="M73.0263 74.9999H59.8684C58.7781 74.9999 57.8947 74.1165 57.8947 73.0262C57.8947 71.936 58.7781 71.0526 59.8684 71.0526H70.8399C69.934 66.9189 66.2437 63.8157 61.8421 63.8157C58.054 63.8157 54.6014 66.1877 53.2509 69.7181C52.8622 70.7365 51.7244 71.2459 50.7028 70.8566C49.6845 70.4673 49.175 69.3262 49.5644 68.3086C51.495 63.26 56.4292 59.8684 61.8421 59.8684C69.0975 59.8684 74.9999 65.7708 74.9999 73.0262C74.9999 74.1165 74.1165 74.9999 73.0263 74.9999Z" fill="#02CAE3"/>
<path d="M11.1842 25.5397C10.0939 25.5397 9.21053 24.6563 9.21053 23.566V13.8158C9.21053 13.0262 9.68082 12.313 10.4068 12.0014L19.6161 8.05407C20.6157 7.62747 21.7786 8.08942 22.2078 9.09103C22.637 10.0927 22.1731 11.253 21.1708 11.6828L13.1579 15.1175V23.566C13.1579 24.6563 12.2745 25.5397 11.1842 25.5397Z" fill="#02CAE3"/>
<path d="M63.8158 25.5397C62.7255 25.5397 61.8421 24.6563 61.8421 23.566V15.1174L53.8291 11.6828C52.8269 11.253 52.363 10.0926 52.7922 9.09103C53.2233 8.08941 54.3868 7.62748 55.3839 8.05407L64.5932 12.0014C65.3192 12.313 65.7895 13.0262 65.7895 13.8158V23.566C65.7895 24.6563 64.906 25.5397 63.8158 25.5397Z" fill="#02CAE3"/>
<path d="M37.5 60.5262C31.3329 60.5262 26.3158 55.5091 26.3158 49.342C26.3158 43.1749 31.3329 38.1578 37.5 38.1578C43.6671 38.1578 48.6842 43.1749 48.6842 49.342C48.6842 55.5091 43.6671 60.5262 37.5 60.5262ZM37.5 42.1052C33.5096 42.1052 30.2631 45.3516 30.2631 49.342C30.2631 53.3324 33.5096 56.5788 37.5 56.5788C41.4904 56.5788 44.7368 53.3324 44.7368 49.342C44.7368 45.3516 41.4904 42.1052 37.5 42.1052Z" fill="#02CAE3"/>
<path d="M51.9737 75H23.0263C21.936 75 21.0526 74.1166 21.0526 73.0263C21.0526 63.9571 28.4308 56.5789 37.5 56.5789C46.5692 56.5789 53.9473 63.9571 53.9473 73.0263C53.9473 74.1166 53.0639 75 51.9737 75ZM25.1555 71.0526H49.8445C48.8955 65.0943 43.7211 60.5263 37.5 60.5263C31.2789 60.5263 26.1044 65.0943 25.1555 71.0526Z" fill="#02CAE3"/>
</svg>
