<svg width="47" height="62" viewBox="0 0 47 62" fill="none" xmlns="http://www.w3.org/2000/svg">
<path d="M46.4703 14.9908L32.0092 0.529654C31.6716 0.191977 31.2109 0 30.7308 0H5.42308C2.43279 0 0 2.43279 0 5.42308V56.2795C0 59.2698 2.43279 61.7026 5.42308 61.7026H41.5769C44.5672 61.7026 47 59.2698 47 56.2795V16.2692C47 15.7763 46.7931 15.3134 46.4703 14.9908ZM32.5385 6.17182L40.8282 14.4615H34.3462C33.3494 14.4615 32.5385 13.6506 32.5385 12.6538V6.17182ZM41.5769 58.0872H5.42308C4.42632 58.0872 3.61538 57.2762 3.61538 56.2795V5.42308C3.61538 4.42632 4.42632 3.61538 5.42308 3.61538H28.9231V12.6538C28.9231 15.6441 31.3559 18.0769 34.3462 18.0769H43.3846V56.2795C43.3846 57.2762 42.5737 58.0872 41.5769 58.0872Z" fill="#006afe"/>
<path d="M34.3462 25.5486H12.6539C11.6556 25.5486 10.8462 26.3579 10.8462 27.3563C10.8462 28.3546 11.6556 29.164 12.6539 29.164H34.3462C35.3445 29.164 36.1539 28.3546 36.1539 27.3563C36.1539 26.3579 35.3445 25.5486 34.3462 25.5486Z" fill="#006afe"/>
<path d="M34.3462 32.7795H12.6539C11.6556 32.7795 10.8462 33.5889 10.8462 34.5872C10.8462 35.5856 11.6556 36.3949 12.6539 36.3949H34.3462C35.3445 36.3949 36.1539 35.5856 36.1539 34.5872C36.1539 33.5889 35.3445 32.7795 34.3462 32.7795Z" fill="#006afe"/>
<path d="M34.3462 40.0103H12.6539C11.6556 40.0103 10.8462 40.8196 10.8462 41.8179C10.8462 42.8163 11.6556 43.6256 12.6539 43.6256H34.3462C35.3445 43.6256 36.1539 42.8163 36.1539 41.8179C36.1539 40.8196 35.3445 40.0103 34.3462 40.0103Z" fill="#006afe"/>
<path d="M27.1154 47.241H12.6539C11.6556 47.241 10.8462 48.0503 10.8462 49.0487C10.8462 50.047 11.6556 50.8564 12.6539 50.8564H27.1154C28.1138 50.8564 28.9231 50.047 28.9231 49.0487C28.9231 48.0503 28.1138 47.241 27.1154 47.241Z" fill="#006afe"/>
</svg>
