<svg width="70" height="62" viewBox="0 0 70 62" fill="none" xmlns="http://www.w3.org/2000/svg">
<path d="M19.1161 12.5093V6.41214C19.1161 3.98548 21.1016 2 23.5283 2H46.4716C48.8984 2 50.8838 3.98548 50.8838 6.41214V12.5093" stroke="#006afe" stroke-width="4" stroke-miterlimit="22.9256" stroke-linecap="round" stroke-linejoin="round"/>
<path d="M65.2614 32.2272V55.6079C65.2614 57.8668 63.4125 59.7158 61.1535 59.7158H8.84647C6.58755 59.7158 4.73859 57.8672 4.73859 55.6079V32.3641" stroke="#006afe" stroke-width="4" stroke-miterlimit="22.9256" stroke-linecap="round" stroke-linejoin="round"/>
<path d="M29.5228 39.1422C15.0372 38.3139 2 34.1717 2 26.7154V16.9939C2 14.7314 3.84526 12.886 6.10788 12.886H63.8921C66.1546 12.886 68 14.7315 68 16.9939V26.7154C68 34.2184 54.7981 38.3657 40.2033 39.1574" stroke="#006afe" stroke-width="4" stroke-miterlimit="22.9256" stroke-linecap="round" stroke-linejoin="round"/>
<path fill-rule="evenodd" clip-rule="evenodd" d="M29.9336 35.0685H40.0664V39.7925C40.0664 42.3908 37.9405 44.5166 35.3423 44.5166H34.6577C32.0594 44.5166 29.9336 42.3908 29.9336 39.7925V35.0685Z" stroke="#006afe" stroke-width="4" stroke-miterlimit="22.9256" stroke-linecap="round" stroke-linejoin="round"/>
</svg>
