<svg width="57" height="58" viewBox="0 0 57 58" fill="none" xmlns="http://www.w3.org/2000/svg">
<path d="M50.6139 43.1241C49.6353 42.3773 48.2521 42.5858 47.5241 43.5896C47.1238 44.1417 46.6954 44.6833 46.2507 45.1993C45.4431 46.1367 45.5288 47.5686 46.4425 48.3974C46.8628 48.7784 47.3845 48.9656 47.9043 48.9656C48.5151 48.9656 49.1232 48.707 49.5596 48.2005C50.0862 47.5894 50.5935 46.948 51.0676 46.2941C51.7956 45.2903 51.5925 43.8709 50.6139 43.1241Z" fill="#006afe"/>
<path d="M54.3072 32.4989C53.1163 32.2328 51.9391 33.0082 51.6798 34.2308C51.537 34.9033 51.3645 35.5771 51.1668 36.2337C50.8067 37.4293 51.4595 38.6978 52.6247 39.0672C52.8419 39.136 53.0614 39.1687 53.2773 39.1687C54.2203 39.1687 55.0934 38.5441 55.3865 37.5712C55.6212 36.7921 55.8259 35.9924 55.9953 35.1946C56.2547 33.972 55.4989 32.7651 54.3072 32.4989Z" fill="#006afe"/>
<path d="M39.9851 50.3801C39.3988 50.7158 38.7918 51.0296 38.181 51.3127C37.0695 51.8277 36.5754 53.1696 37.0773 54.31C37.4461 55.1479 38.2498 55.6437 39.0911 55.6437C39.395 55.6437 39.7038 55.579 39.9987 55.4424C40.7234 55.1066 41.443 54.7345 42.1382 54.3363C43.2031 53.7264 43.5844 52.3462 42.9897 51.2537C42.3954 50.1613 41.0501 49.7702 39.9851 50.3801Z" fill="#006afe"/>
<path d="M26.0579 10.8749V28.0615L17.9603 36.3693C17.0979 37.2542 17.0979 38.6887 17.9603 39.5734C18.3915 40.0159 18.9565 40.237 19.5219 40.237C20.0869 40.237 20.6522 40.0157 21.0834 39.5734L29.8277 30.6019C30.2418 30.1771 30.4744 29.6008 30.4744 28.9999V10.8749C30.4744 9.62359 29.4858 8.60927 28.2662 8.60927C27.0465 8.60927 26.0579 9.62359 26.0579 10.8749Z" fill="#006afe"/>
<path d="M54.3235 4.8711C53.1038 4.8711 52.1152 5.88542 52.1152 7.13673V13.4279C46.9752 5.15748 37.9989 0 28.2659 0C20.7158 0 13.6176 3.01657 8.27881 8.49384C2.9402 13.9713 0 21.2539 0 29C0 36.7462 2.9402 44.0287 8.27881 49.5062C13.6176 54.9835 20.7158 58.0001 28.2659 58.0001C28.2845 58.0001 28.3025 57.9977 28.3211 57.9973C28.3396 57.9977 28.3576 58.0001 28.3763 58.0001C29.1721 58.0001 29.9758 57.9656 30.7653 57.8979C31.9806 57.7935 32.8834 56.698 32.7817 55.4511C32.6798 54.2042 31.6135 53.2776 30.3967 53.3825C29.7294 53.4397 29.0497 53.4688 28.3763 53.4688C28.3576 53.4688 28.3396 53.4712 28.3211 53.4717C28.3025 53.4712 28.2845 53.4688 28.2659 53.4688C15.1153 53.4688 4.41654 42.4922 4.41654 29C4.41654 15.5079 15.1153 4.53126 28.2659 4.53126C36.741 4.53126 44.5361 9.16594 48.7957 16.5391H42.7237C41.5041 16.5391 40.5155 17.5534 40.5155 18.8047C40.5155 20.056 41.5041 21.0703 42.7237 21.0703H49.4653C50.8101 21.0703 52.0683 20.6826 53.1395 20.0108C53.2084 19.9705 53.2746 19.9271 53.3378 19.8803C55.2596 18.5831 56.5317 16.3518 56.5317 13.8203V7.13673C56.5317 5.88542 55.5431 4.8711 54.3235 4.8711Z" fill="#006afe"/>
</svg>
