<svg width="28" height="27" viewBox="0 0 28 27" fill="none" xmlns="http://www.w3.org/2000/svg">
<path d="M28 26.9997V17.1107C28 12.2506 26.9151 8.53809 21.0349 8.53809C18.2 8.53809 16.3099 10.0232 15.5401 11.4405H15.4704V8.97644H9.90527V26.9991H15.7151V18.0553C15.7151 15.6928 16.1704 13.4318 19.1803 13.4318C22.1901 13.4318 22.1901 16.0982 22.1901 18.1905V26.9655H28V26.9991V26.9997Z" fill="white"/>
<path d="M0.455276 8.97754H6.26514V27.0002H0.455276V8.97754Z" fill="white"/>
<path d="M3.35986 0C1.50527 0 0 1.45151 0 3.23987C0 5.02822 1.50527 6.51335 3.35986 6.51335C5.21445 6.51335 6.71973 5.02822 6.71973 3.23987C6.71973 1.45151 5.21514 0 3.35986 0Z" fill="white"/>
</svg>
