<svg width="35" height="35" viewBox="0 0 35 35" fill="none" xmlns="http://www.w3.org/2000/svg">
<path d="M32.0833 24.6755V29.0505C32.085 29.4566 32.0018 29.8586 31.8391 30.2308C31.6764 30.6029 31.4377 30.937 31.1385 31.2115C30.8392 31.4861 30.4858 31.6951 30.1011 31.8252C29.7164 31.9554 29.3087 32.0037 28.9042 31.9671C24.4166 31.4795 20.106 29.9461 16.3188 27.4901C12.7952 25.251 9.80779 22.2636 7.56875 18.7401C5.10414 14.9356 3.57036 10.604 3.09167 6.0963C3.05523 5.69302 3.10316 5.28658 3.2324 4.90284C3.36165 4.5191 3.56938 4.16647 3.84237 3.86741C4.11536 3.56836 4.44764 3.32942 4.81803 3.16581C5.18843 3.0022 5.58883 2.91751 5.99375 2.91713H10.3688C11.0765 2.91017 11.7626 3.16079 12.2992 3.62229C12.8359 4.08378 13.1864 4.72466 13.2854 5.42547C13.4701 6.82556 13.8125 8.20028 14.3063 9.52338C14.5025 10.0454 14.5449 10.6126 14.4286 11.158C14.3123 11.7034 14.0421 12.204 13.65 12.6005L11.7979 14.4526C13.8739 18.1036 16.8969 21.1265 20.5479 23.2026L22.4 21.3505C22.7965 20.9584 23.2971 20.6882 23.8425 20.5719C24.3878 20.4555 24.9551 20.498 25.4771 20.6942C26.8002 21.1879 28.1749 21.5304 29.575 21.7151C30.2834 21.815 30.9304 22.1718 31.3929 22.7176C31.8553 23.2635 32.1011 23.9603 32.0833 24.6755Z" stroke="white" stroke-width="3" stroke-linecap="round" stroke-linejoin="round"/>
</svg>
