<svg width="25" height="25" viewBox="0 0 25 25" fill="none" xmlns="http://www.w3.org/2000/svg">
<path d="M24.6648 7.35691C24.6114 6.03402 24.3978 5.11609 24.0909 4.31966C23.7705 3.48272 23.2901 2.72678 22.6628 2.10583C22.0488 1.47138 21.3014 0.971923 20.4739 0.661447C19.6864 0.350972 18.7922 0.134989 17.4709 0.0809936C16.1496 0.0134989 15.7225 0 12.3724 0C9.02239 0 8.5953 0.0134989 7.27397 0.0674946C5.96599 0.12149 5.05841 0.337473 4.27096 0.647949C3.44346 0.971923 2.69604 1.45788 2.08209 2.09233C1.4548 2.71328 0.960967 3.46922 0.653992 4.30616C0.347017 5.10259 0.133469 6.00702 0.0800822 7.34342C0.0133486 8.67981 0 9.11178 0 12.5C0 15.8882 0.0133457 16.3202 0.0667327 17.6566C0.12012 18.9795 0.333668 19.8974 0.640643 20.6939C0.960964 21.5308 1.44145 22.2867 2.06874 22.9077C2.68269 23.5421 3.43011 24.0416 4.25761 24.3521C5.04506 24.6625 5.9393 24.8785 7.26062 24.9325C8.58195 24.9865 8.9957 25 12.3591 25C15.7225 25 16.1362 24.9865 17.4575 24.9325C18.7655 24.8785 19.6731 24.6625 20.4605 24.3521C22.1155 23.7041 23.4369 22.3677 24.0775 20.6939C24.3845 19.8974 24.598 18.993 24.6514 17.6566C24.7048 16.3202 24.7182 15.9017 24.7182 12.5C24.7182 9.09828 24.7182 8.67981 24.6514 7.34342L24.6648 7.35691ZM22.4359 17.5621C22.3825 18.777 22.1823 19.4385 22.0088 19.8839C21.595 20.9773 20.7408 21.8413 19.6597 22.2597C19.2193 22.4352 18.5653 22.6377 17.3641 22.6917C16.0561 22.7457 15.6691 22.7592 12.3724 22.7592C9.07578 22.7592 8.67538 22.7457 7.38074 22.6917C6.17954 22.6377 5.52555 22.4352 5.08511 22.2597C4.55124 22.0572 4.05741 21.7468 3.67035 21.3283C3.2566 20.9233 2.94963 20.4374 2.74943 19.8974C2.57592 19.452 2.37572 18.7905 2.32233 17.5756C2.26895 16.2527 2.2556 15.8612 2.2556 12.527C2.2556 9.19277 2.26895 8.7878 2.32233 7.47841C2.37572 6.2635 2.57592 5.60205 2.74943 5.15659C2.94963 4.61663 3.2566 4.11717 3.67035 3.7257C4.07075 3.30724 4.55124 2.99676 5.08511 2.79428C5.52555 2.61879 6.17954 2.41631 7.38074 2.36231C8.68872 2.30832 9.07578 2.29482 12.3724 2.29482C15.6691 2.29482 16.0695 2.30832 17.3641 2.36231C18.5653 2.41631 19.2193 2.61879 19.6597 2.79428C20.1936 2.99676 20.6874 3.30724 21.0745 3.7257C21.4882 4.13067 21.7952 4.61663 21.9954 5.15659C22.1689 5.60205 22.3691 6.2635 22.4225 7.47841C22.4759 8.8013 22.4893 9.19277 22.4893 12.527C22.4893 15.8612 22.4759 16.2527 22.4225 17.5756L22.4359 17.5621Z" fill="white"/>
<path d="M12.3723 6.07466C8.86209 6.07466 6.01924 8.94994 6.01924 12.5002C6.01924 16.0504 8.86209 18.9256 12.3723 18.9256C15.8825 18.9256 18.7253 16.0504 18.7253 12.5002C18.7253 8.94994 15.8825 6.07466 12.3723 6.07466ZM12.3723 16.6713C10.1033 16.6713 8.24814 14.8085 8.24814 12.5002C8.24814 10.1918 10.09 8.32899 12.3723 8.32899C14.6546 8.32899 16.4964 10.1918 16.4964 12.5002C16.4964 14.8085 14.6546 16.6713 12.3723 16.6713Z" fill="white"/>
<path d="M20.4605 5.83107C20.4605 6.6545 19.7932 7.32945 18.979 7.32945C18.1649 7.32945 17.4976 6.6545 17.4976 5.83107C17.4976 5.00763 18.1649 4.33269 18.979 4.33269C19.7932 4.33269 20.4605 5.00763 20.4605 5.83107Z" fill="white"/>
</svg>
