<svg width="21" height="25" viewBox="0 0 21 25" fill="none" xmlns="http://www.w3.org/2000/svg">
<path d="M20.9886 6.25966C19.6224 6.25966 18.3619 5.78627 17.3496 4.98768C16.1887 4.0722 15.3545 2.72931 15.06 1.18151C14.987 0.799084 14.9478 0.404433 14.944 0H11.0413V11.1539L11.0366 17.2635C11.0366 18.8968 10.0197 20.2818 8.60999 20.7689C8.20088 20.9102 7.75903 20.9772 7.29895 20.9508C6.7117 20.917 6.16138 20.7317 5.68307 20.4324C4.66519 19.7957 3.97507 18.6406 3.95637 17.3192C3.92691 15.254 5.52316 13.5703 7.49627 13.5703C7.88574 13.5703 8.25979 13.6368 8.60999 13.7576V9.61298C8.24062 9.55576 7.8647 9.52593 7.48458 9.52593C5.32492 9.52593 3.30506 10.4649 1.86123 12.1565C0.769945 13.4348 0.115361 15.0657 0.0143678 16.7759C-0.117952 19.0225 0.668017 21.1581 2.19226 22.7338C2.41622 22.9651 2.65141 23.1798 2.89734 23.3779C4.20417 24.4298 5.80183 25 7.48458 25C7.8647 25 8.24062 24.9707 8.60999 24.9134C10.1819 24.6699 11.6323 23.9173 12.7769 22.7338C14.1833 21.2799 14.9604 19.3497 14.9688 17.2952L14.9487 8.17179C15.6197 8.71315 16.3533 9.16111 17.1406 9.50881C18.3652 10.0492 19.6636 10.3231 20.9999 10.3226V6.25868C20.9999 6.25868 20.9896 6.25966 20.9886 6.25966Z" fill="white"/>
</svg>
