<svg width="35" height="35" viewBox="0 0 35 35" fill="none" xmlns="http://www.w3.org/2000/svg">
<path d="M17.5 32.0837C17.1597 32.0837 16.868 31.9864 16.625 31.792C16.3819 31.5975 16.1996 31.3423 16.0781 31.0264C15.6163 29.6653 15.0329 28.3892 14.3281 27.1982C13.6475 26.0073 12.6875 24.6097 11.4479 23.0055C10.2083 21.4014 9.19961 19.8701 8.42183 18.4118C7.66836 16.9534 7.29163 15.1913 7.29163 13.1253C7.29163 10.2816 8.276 7.87532 10.2448 5.90657C12.2378 3.91352 14.6562 2.91699 17.5 2.91699C20.3437 2.91699 22.75 3.91352 24.7187 5.90657C26.7118 7.87532 27.7083 10.2816 27.7083 13.1253C27.7083 15.3371 27.2829 17.1844 26.4323 18.667C25.6059 20.1253 24.6458 21.5715 23.552 23.0055C22.2395 24.7555 21.243 26.2139 20.5625 27.3805C19.9062 28.5229 19.3593 29.7382 18.9218 31.0264C18.8003 31.3666 18.6059 31.634 18.3385 31.8284C18.0954 31.9986 17.8159 32.0837 17.5 32.0837ZM17.5 26.8701C17.9132 26.0437 18.375 25.2295 18.8854 24.4274C19.4201 23.6253 20.1979 22.5559 21.2187 21.2191C22.2638 19.858 23.1145 18.6062 23.7708 17.4639C24.4513 16.2972 24.7916 14.851 24.7916 13.1253C24.7916 11.108 24.0746 9.39442 22.6406 7.9847C21.2309 6.55067 19.5173 5.83366 17.5 5.83366C15.4826 5.83366 13.7569 6.55067 12.3229 7.9847C10.9132 9.39442 10.2083 11.108 10.2083 13.1253C10.2083 14.851 10.5364 16.2972 11.1927 17.4639C11.8732 18.6062 12.7361 19.858 13.7812 21.2191C14.802 22.5559 15.5677 23.6253 16.0781 24.4274C16.6128 25.2295 17.0868 26.0437 17.5 26.8701ZM17.5 16.7712C18.5208 16.7712 19.3836 16.4187 20.0885 15.7139C20.7934 15.009 21.1458 14.1462 21.1458 13.1253C21.1458 12.1045 20.7934 11.2416 20.0885 10.5368C19.3836 9.83192 18.5208 9.47949 17.5 9.47949C16.4791 9.47949 15.6163 9.83192 14.9114 10.5368C14.2066 11.2416 13.8541 12.1045 13.8541 13.1253C13.8541 14.1462 14.2066 15.009 14.9114 15.7139C15.6163 16.4187 16.4791 16.7712 17.5 16.7712Z" fill="white"/>
</svg>
