<svg width="35" height="35" viewBox="0 0 35 35" fill="none" xmlns="http://www.w3.org/2000/svg">
<path d="M5.83329 29.1663C5.03121 29.1663 4.34458 28.8808 3.7734 28.3096C3.20222 27.7384 2.91663 27.0518 2.91663 26.2497V8.74967C2.91663 7.94759 3.20222 7.26096 3.7734 6.68978C4.34458 6.1186 5.03121 5.83301 5.83329 5.83301H29.1666C29.9687 5.83301 30.6553 6.1186 31.2265 6.68978C31.7977 7.26096 32.0833 7.94759 32.0833 8.74967V26.2497C32.0833 27.0518 31.7977 27.7384 31.2265 28.3096C30.6553 28.8808 29.9687 29.1663 29.1666 29.1663H5.83329ZM17.5 18.958L5.83329 11.6663V26.2497H29.1666V11.6663L17.5 18.958ZM17.5 16.0413L29.1666 8.74967H5.83329L17.5 16.0413ZM5.83329 11.6663V8.74967V26.2497V11.6663Z" fill="white"/>
</svg>
